<svg width="1622" height="835" viewBox="0 0 1622 835" fill="none" xmlns="http://www.w3.org/2000/svg">
<rect width="1622" height="835" fill="#9EAD72"/>
<path d="M269.661 362.458L269.661 380.388L269.661 407.974H302.41V413.524H269.661V525.648C269.661 531.199 270.678 535.177 272.713 537.582C274.749 539.802 277.802 540.912 281.872 540.912C285.202 540.912 288.533 539.71 291.863 537.304C295.194 534.714 298.154 530.366 300.744 524.26L305.462 526.758C302.502 535.084 297.969 541.93 291.863 547.296C285.943 552.661 277.802 555.344 267.44 555.344C261.335 555.344 255.969 554.511 251.343 552.846C246.718 551.366 242.832 549.053 239.687 545.908C235.616 541.837 232.934 536.842 231.638 530.921C230.343 524.815 229.696 516.952 229.696 507.331V413.524H206.383V407.974H229.696V371.339C229.744 371.339 229.792 371.339 229.84 371.339C237.555 371.331 244.63 370.683 251.066 369.396C257.727 367.916 263.925 365.603 269.661 362.458Z" fill="#F3EEEA"/>
<path d="M370.31 404.088C383.817 404.088 395.658 406.586 405.834 411.582C416.011 416.577 423.966 424.626 429.702 435.727C435.438 446.828 438.306 461.538 438.306 479.855C438.306 498.172 435.438 512.881 429.702 523.983C423.966 534.899 416.011 542.855 405.834 547.851C395.658 552.846 383.817 555.344 370.31 555.344C357.173 555.344 345.424 552.846 335.063 547.851C324.887 542.855 316.838 534.899 310.918 523.983C305.182 512.881 302.314 498.172 302.314 479.855C302.314 461.538 305.182 446.828 310.918 435.727C316.838 424.626 324.887 416.577 335.063 411.582C345.424 406.586 357.173 404.088 370.31 404.088ZM370.31 409.639C362.909 409.639 356.711 415.189 351.715 426.291C346.72 437.207 344.222 455.062 344.222 479.855C344.222 504.648 346.72 522.503 351.715 533.419C356.711 544.335 362.909 549.793 370.31 549.793C377.896 549.793 384.094 544.335 388.905 533.419C393.9 522.503 396.398 504.648 396.398 479.855C396.398 455.062 393.9 437.207 388.905 426.291C384.094 415.189 377.896 409.639 370.31 409.639Z" fill="#F3EEEA"/>
<path fill-rule="evenodd" clip-rule="evenodd" d="M564.251 529.902C561.745 536.807 559.535 543.669 557.629 550.486C554.135 550.578 550.665 550.717 547.219 550.903C540.558 551.088 535.469 551.273 531.954 551.459V545.63C537.505 545.63 541.39 544.243 543.61 541.467C545.831 538.692 546.941 533.419 546.941 525.648V439.335C546.941 434.709 546.478 430.731 545.553 427.401C544.628 423.886 542.963 421.202 540.558 419.352C538.152 417.317 534.544 416.3 529.733 416.3C524.738 416.3 520.112 417.687 515.857 420.462C511.786 423.238 508.456 427.123 505.866 432.119C503.46 436.93 502.257 442.388 502.257 448.493V525.648C502.257 533.419 503.368 538.692 505.588 541.467C507.993 544.243 511.879 545.63 517.244 545.63V551.459C513.914 551.273 509.011 551.088 502.535 550.903C496.245 550.534 489.676 550.348 482.83 550.348C475.8 550.348 468.583 550.534 461.183 550.903C453.782 551.088 448.231 551.273 444.531 551.459V545.63C451.007 545.63 455.539 544.243 458.13 541.467C460.905 538.692 462.293 533.419 462.293 525.648V438.224C462.293 429.899 460.998 423.793 458.407 419.908C456.002 415.837 451.377 413.802 444.531 413.802V407.974C450.452 408.529 456.187 408.806 461.738 408.806C469.509 408.806 476.725 408.529 483.385 407.974C490.231 407.233 496.522 406.216 502.257 404.921V429.899C506.883 420.462 513.174 413.802 521.13 409.916C529.086 406.031 537.967 404.088 547.773 404.088C555.544 404.088 561.835 405.106 566.646 407.141C571.642 408.991 575.526 411.582 578.302 414.912C581.262 418.427 583.39 422.961 584.686 428.511C586.165 434.062 586.905 441.555 586.905 450.991V481.828C577.87 497.176 570.313 513.204 564.251 529.902Z" fill="#F3EEEA"/>
<path d="M1294.28 612.416C1304.99 608.239 1315.17 603.54 1324.83 598.32C1334.48 593.099 1342.71 587.356 1349.49 581.091C1359.67 571.954 1367.77 561.382 1373.77 549.374C1380.04 537.105 1383.17 523.922 1383.17 509.826C1383.17 504.605 1382.65 501.211 1381.6 499.645C1380.56 497.818 1378.99 496.904 1376.9 496.904C1369.86 496.904 1362.02 501.342 1353.41 510.217C1344.8 519.093 1336.57 530.709 1328.74 545.067C1321.17 559.424 1314.91 575.087 1309.95 592.054C1305.25 609.022 1302.9 625.468 1302.9 641.392C1302.9 656.01 1305.64 666.06 1311.12 671.542C1316.86 676.763 1324.17 679.374 1333.05 679.374C1340.1 679.374 1348.84 677.024 1359.28 672.325C1369.73 667.627 1380.04 659.273 1390.22 647.265L1396.48 650.398C1391 659.012 1383.82 667.366 1374.95 675.458C1366.07 683.55 1355.76 690.207 1344.01 695.428C1332.27 700.388 1319.47 702.867 1305.64 702.867C1288.15 702.867 1273.53 698.299 1261.78 689.163C1250.04 679.765 1244.16 665.93 1244.16 647.657C1244.16 633.822 1246.38 619.595 1250.82 604.976C1255.52 590.358 1262.04 576.261 1270.4 562.687C1278.75 548.852 1288.8 536.452 1300.55 525.488C1312.3 514.263 1325.35 505.519 1339.71 499.253C1354.06 492.727 1369.33 489.464 1385.52 489.464C1397 489.464 1406.66 492.075 1414.49 497.296C1422.33 502.256 1426.24 509.956 1426.24 520.398C1426.24 530.579 1423.37 540.107 1417.63 548.982C1412.14 557.858 1404.7 565.95 1395.31 573.259C1385.91 580.569 1375.34 587.095 1363.59 592.838C1352.1 598.581 1340.23 603.54 1327.96 607.717C1315.95 611.894 1304.59 615.157 1293.89 617.506L1294.28 612.416Z" fill="#F3EEEA"/>
<path d="M1196.86 664.102C1195.03 670.889 1194.77 675.849 1196.08 678.981C1197.64 682.114 1200.12 683.68 1203.52 683.68C1206.39 683.68 1209.91 681.853 1214.09 678.198C1218.27 674.283 1222.57 665.799 1227.01 652.746L1234.06 633.951H1241.5L1231.71 662.536C1228.05 673.238 1223.36 681.461 1217.61 687.204C1211.87 692.947 1205.74 696.993 1199.21 699.343C1192.68 701.692 1186.16 702.867 1179.63 702.867C1168.41 702.867 1159.92 700.256 1154.18 695.035C1148.44 689.554 1145.17 682.244 1144.39 673.108C1143.87 663.71 1145.3 652.877 1148.7 640.608L1210.17 436.211C1212.78 427.335 1212.52 420.809 1209.39 416.632C1206.26 412.456 1198.3 410.367 1185.5 410.367L1188.25 402.145C1207.04 401.883 1223.49 400.448 1237.58 397.837C1251.94 394.966 1265.78 391.05 1279.09 386.09L1196.86 664.102Z" fill="#F3EEEA"/>
<path d="M1115.85 497.296C1106.19 497.296 1096.66 501.472 1087.26 509.826C1077.87 517.918 1069.38 528.882 1061.81 542.717C1054.5 556.553 1048.63 572.085 1044.19 589.314C1039.75 606.542 1037.54 624.293 1037.54 642.566C1037.54 656.402 1040.28 666.452 1045.76 672.717C1051.24 678.721 1058.42 681.723 1067.3 681.723C1075.65 681.723 1084.13 679.243 1092.75 674.283C1101.36 669.323 1110.11 660.317 1118.98 647.265L1126.81 650.398C1121.59 659.012 1114.8 667.366 1106.45 675.458C1098.36 683.55 1088.83 690.207 1077.87 695.428C1067.16 700.388 1055.03 702.867 1041.45 702.867C1023.18 702.867 1008.17 698.038 996.422 688.38C984.675 678.46 978.801 663.189 978.801 642.566C978.801 626.382 981.934 609.414 988.199 591.663C994.464 573.912 1003.34 557.336 1014.83 541.934C1026.57 526.272 1040.67 513.611 1057.11 503.952C1073.56 494.294 1091.96 489.464 1112.33 489.464C1126.68 489.464 1138.17 493.119 1146.78 500.428C1155.66 507.476 1160.1 516.352 1160.1 527.055C1160.1 534.103 1158.4 541.02 1155.01 547.808C1151.61 554.334 1146.91 559.816 1140.91 564.253C1135.17 568.43 1128.64 570.518 1121.33 570.518C1115.07 570.518 1109.71 568.561 1105.28 564.645C1101.1 560.468 1099.01 554.856 1099.01 547.808C1099.01 537.105 1102.54 527.968 1109.58 520.398C1116.89 512.567 1125.25 507.476 1134.64 505.127C1132.56 502.517 1129.95 500.559 1126.81 499.253C1123.94 497.948 1120.29 497.296 1115.85 497.296Z" fill="#F3EEEA"/>
<path fill-rule="evenodd" clip-rule="evenodd" d="M759.361 400.495C765.011 398.635 770.691 397.704 776.401 397.704C783.171 397.704 788.746 398.672 793.126 400.608C797.905 402.543 801.887 405.447 805.073 409.318C790.737 412.803 777.994 420.352 766.844 431.966C756.092 443.192 750.716 456.742 750.716 472.615C750.716 483.067 753.901 491.39 760.273 497.585C767.043 503.392 775.206 506.295 784.764 506.295C795.914 506.295 805.869 503.198 814.63 497.004C823.789 490.423 830.957 482.293 836.134 472.615C841.311 462.549 843.899 452.29 843.899 441.837C843.899 425.965 837.13 412.802 823.59 402.35C810.449 391.51 792.927 386.09 771.025 386.09C739.964 386.09 711.889 393.252 686.801 407.576C661.713 421.9 640.209 440.676 622.289 463.904C604.768 486.745 591.228 511.328 581.671 537.653C572.114 563.978 567.335 589.141 567.335 613.144C567.335 643.727 576.295 666.374 594.215 681.085C612.135 695.409 635.032 702.571 662.908 702.571C683.615 702.571 702.133 698.894 718.46 691.538C735.185 683.795 749.72 673.923 762.065 661.922C774.808 649.921 785.162 637.533 793.126 624.758L781.18 620.112C767.64 639.469 754.3 652.825 741.158 660.18C728.017 667.536 715.075 671.214 702.332 671.214C699.123 671.214 696.06 670.964 693.142 670.464C687.036 669.856 605.19 659.362 644.317 536.489C682.801 409.612 759.361 400.495 759.361 400.495Z" fill="#F3EEEA"/>
<path d="M922.642 673.5L880.745 720.88L849.419 528.621C848.114 521.573 846.809 516.743 845.504 514.133C844.199 511.523 842.11 510.217 839.239 510.217C836.628 510.217 834.018 512.045 831.407 515.699C828.797 519.093 825.273 526.924 820.835 539.193L813.787 558.38H806.347L816.136 529.796C821.618 513.872 828.536 503.169 836.889 497.687C845.243 492.205 854.379 489.464 864.299 489.464C875.002 489.464 883.616 492.466 890.142 498.47C896.668 504.213 901.106 515.308 903.456 531.753L922.642 673.5ZM829.058 751.813C841.327 745.809 853.988 737.586 867.04 727.145C880.092 716.964 893.405 703.129 906.98 685.639C921.598 667.627 934.389 648.179 945.353 627.295C956.317 606.151 964.409 585.92 969.63 566.603C959.971 561.121 951.488 554.073 944.178 545.458C936.869 536.583 933.345 526.794 933.606 516.091C933.606 507.737 935.955 501.211 940.654 496.513C945.353 491.814 951.749 489.464 959.841 489.464C968.977 489.464 975.504 492.597 979.419 498.862C983.596 505.127 985.684 513.872 985.684 525.097C985.684 537.366 983.596 550.81 979.419 565.428C975.243 580.047 969.5 595.187 962.19 610.85C954.881 626.251 946.658 641.261 937.522 655.88C928.385 670.498 918.727 683.811 908.546 695.819C900.454 706 891.317 715.528 881.136 724.404C871.217 733.279 860.644 741.241 849.419 748.289C838.456 755.337 826.97 760.95 814.962 765.126C809.219 767.215 803.998 768.651 799.299 769.434C794.6 770.478 790.554 771 787.161 771C778.807 771 772.281 769.042 767.582 765.126C762.622 761.472 760.143 756.12 760.143 749.072C760.143 742.285 762.753 736.542 767.974 731.843C772.934 727.145 779.329 724.795 787.161 724.795C795.514 724.795 803.084 727.145 809.871 731.843C816.92 736.803 823.315 743.46 829.058 751.813Z" fill="#F3EEEA"/>
<path d="M1426.96 295.92C1426.96 299.821 1426.72 303.884 1426.23 308.11H1331.89C1332.54 316.561 1335.22 323.062 1339.93 327.613C1344.81 332.001 1350.74 334.195 1357.73 334.195C1368.13 334.195 1375.36 329.807 1379.43 321.031H1423.79C1421.52 329.97 1417.38 338.015 1411.36 345.166C1405.51 352.317 1398.12 357.924 1389.18 361.987C1380.24 366.051 1370.24 368.082 1359.19 368.082C1345.86 368.082 1334 365.238 1323.6 359.55C1313.2 353.861 1305.07 345.735 1299.22 335.17C1293.37 324.606 1290.44 312.254 1290.44 298.114C1290.44 283.974 1293.29 271.622 1298.97 261.058C1304.83 250.494 1312.95 242.367 1323.35 236.679C1333.75 230.991 1345.7 228.146 1359.19 228.146C1372.36 228.146 1384.06 230.909 1394.3 236.435C1404.54 241.961 1412.5 249.844 1418.19 260.083C1424.04 270.322 1426.96 282.268 1426.96 295.92ZM1384.3 284.95C1384.3 277.798 1381.86 272.11 1376.99 267.884C1372.11 263.659 1366.02 261.546 1358.7 261.546C1351.71 261.546 1345.78 263.577 1340.91 267.64C1336.19 271.704 1333.27 277.473 1332.13 284.95H1384.3Z" fill="#F3EEEA"/>
<path d="M1223.99 228.634C1240.89 228.634 1254.3 233.753 1264.21 243.992C1274.29 254.232 1279.33 268.453 1279.33 286.656V366.132H1237.88V292.263C1237.88 283.487 1235.53 276.742 1230.81 272.028C1226.26 267.153 1219.92 264.715 1211.8 264.715C1203.67 264.715 1197.25 267.153 1192.54 272.028C1187.99 276.742 1185.71 283.487 1185.71 292.263V366.132H1144.27V292.263C1144.27 283.487 1141.91 276.742 1137.2 272.028C1132.65 267.153 1126.31 264.715 1118.18 264.715C1110.05 264.715 1103.63 267.153 1098.92 272.028C1094.37 276.742 1092.1 283.487 1092.1 292.263V366.132H1050.41V230.096H1092.1V247.162C1096.32 241.473 1101.85 237.004 1108.67 233.753C1115.5 230.34 1123.22 228.634 1131.83 228.634C1142.07 228.634 1151.17 230.828 1159.14 235.216C1167.26 239.604 1173.6 245.862 1178.15 253.988C1182.87 246.512 1189.29 240.417 1197.41 235.704C1205.54 230.99 1214.4 228.634 1223.99 228.634Z" fill="#F3EEEA"/>
<path d="M997.569 252.769C1002.44 245.293 1008.54 239.442 1015.85 235.216C1023.17 230.828 1031.29 228.634 1040.23 228.634V272.76H1028.77C1018.37 272.76 1010.57 275.035 1005.37 279.586C1000.17 283.974 997.569 291.775 997.569 302.99V366.132H955.881V230.096H997.569V252.769Z" fill="#F3EEEA"/>
<path d="M872.329 368.082C859.002 368.082 846.975 365.238 836.248 359.55C825.684 353.861 817.314 345.735 811.138 335.17C805.124 324.606 802.118 312.254 802.118 298.114C802.118 284.137 805.206 271.866 811.382 261.302C817.558 250.575 826.009 242.367 836.736 236.679C847.463 230.991 859.49 228.146 872.817 228.146C886.144 228.146 898.171 230.991 908.898 236.679C919.625 242.367 928.076 250.575 934.252 261.302C940.428 271.866 943.516 284.137 943.516 298.114C943.516 312.092 940.347 324.444 934.008 335.17C927.832 345.735 919.3 353.861 908.41 359.55C897.684 365.238 885.657 368.082 872.329 368.082ZM872.329 332.001C880.293 332.001 887.038 329.076 892.564 323.225C898.252 317.374 901.097 309.004 901.097 298.114C901.097 287.225 898.334 278.855 892.808 273.004C887.444 267.153 880.781 264.227 872.817 264.227C864.691 264.227 857.946 267.153 852.582 273.004C847.219 278.692 844.537 287.062 844.537 298.114C844.537 309.004 847.138 317.374 852.339 323.225C857.702 329.076 864.366 332.001 872.329 332.001Z" fill="#F3EEEA"/>
<path d="M800.569 264.715H778.141V366.132H736.452V264.715H721.337V230.097H736.452V226.196C736.452 209.456 741.247 196.779 750.836 188.165C760.425 179.388 774.484 175 793.012 175C796.1 175 798.375 175.081 799.838 175.244V210.593C791.874 210.106 786.267 211.244 783.016 214.007C779.766 216.769 778.141 221.727 778.141 228.878V230.097H800.569V264.715Z" fill="#F3EEEA"/>
<path d="M660.675 228.634C676.603 228.634 689.28 233.835 698.707 244.236C708.296 254.475 713.09 268.615 713.09 286.656V366.132H671.646V292.263C671.646 283.162 669.289 276.092 664.576 271.053C659.863 266.015 653.524 263.496 645.56 263.496C637.597 263.496 631.258 266.015 626.545 271.053C621.831 276.092 619.475 283.162 619.475 292.263V366.132H577.787V230.096H619.475V248.137C623.701 242.123 629.389 237.41 636.54 233.997C643.691 230.421 651.737 228.634 660.675 228.634Z" fill="#F3EEEA"/>
<path d="M413.786 297.871C413.786 283.893 416.387 271.622 421.587 261.058C426.951 250.494 434.183 242.367 443.285 236.679C452.386 230.991 462.544 228.146 473.759 228.146C483.348 228.146 491.718 230.097 498.869 233.997C506.183 237.898 511.79 243.018 515.691 249.356V230.097H557.379V366.132H515.691V346.872C511.627 353.211 505.939 358.331 498.625 362.231C491.474 366.132 483.104 368.082 473.515 368.082C462.463 368.082 452.386 365.238 443.285 359.55C434.183 353.699 426.951 345.491 421.587 334.927C416.387 324.2 413.786 311.848 413.786 297.871ZM515.691 298.114C515.691 287.713 512.765 279.505 506.914 273.491C501.226 267.478 494.237 264.471 485.948 264.471C477.659 264.471 470.589 267.478 464.738 273.491C459.05 279.342 456.206 287.469 456.206 297.871C456.206 308.272 459.05 316.561 464.738 322.737C470.589 328.751 477.659 331.757 485.948 331.757C494.237 331.757 501.226 328.751 506.914 322.737C512.765 316.724 515.691 308.516 515.691 298.114Z" fill="#F3EEEA"/>
<path d="M369.237 252.769C374.113 245.293 380.208 239.442 387.521 235.216C394.835 230.828 402.961 228.634 411.9 228.634V272.76H400.442C390.041 272.76 382.239 275.035 377.038 279.586C371.837 283.974 369.237 291.775 369.237 302.99V366.132H327.549V230.096H369.237V252.769Z" fill="#F3EEEA"/>
<path fill-rule="evenodd" clip-rule="evenodd" d="M316.378 228.39V194.99H184V228.39H229.345V356.902C237.419 356.892 244.825 356.214 251.561 354.867C258.536 353.317 265.027 350.895 271.033 347.602V228.39H316.378Z" fill="#F3EEEA"/>
</svg>
