<svg width="1622" height="835" viewBox="0 0 1622 835" fill="none" xmlns="http://www.w3.org/2000/svg">
<rect width="1622" height="835" fill="#FFC5D1"/>
<path d="M275.661 306.458L275.661 324.388L275.661 351.974H308.41V357.524H275.661V469.648C275.661 475.199 276.678 479.177 278.713 481.582C280.749 483.802 283.802 484.912 287.872 484.912C291.202 484.912 294.533 483.71 297.863 481.304C301.194 478.714 304.154 474.366 306.744 468.26L311.462 470.758C308.502 479.084 303.969 485.93 297.863 491.296C291.943 496.661 283.802 499.344 273.44 499.344C267.335 499.344 261.969 498.512 257.343 496.846C252.718 495.366 248.832 493.053 245.687 489.908C241.616 485.838 238.934 480.842 237.638 474.921C236.343 468.815 235.696 460.952 235.696 451.331V357.524H212.383V351.974H235.696V315.339C235.744 315.339 235.792 315.339 235.84 315.339C243.555 315.331 250.63 314.684 257.066 313.396C263.727 311.916 269.925 309.604 275.661 306.458Z" fill="#4F0B0C"/>
<path d="M376.31 348.088C389.817 348.088 401.658 350.586 411.834 355.582C422.011 360.577 429.966 368.626 435.702 379.727C441.438 390.828 444.306 405.538 444.306 423.855C444.306 442.172 441.438 456.881 435.702 467.983C429.966 478.899 422.011 486.855 411.834 491.851C401.658 496.846 389.817 499.344 376.31 499.344C363.173 499.344 351.424 496.846 341.063 491.851C330.887 486.855 322.838 478.899 316.918 467.983C311.182 456.881 308.314 442.172 308.314 423.855C308.314 405.538 311.182 390.828 316.918 379.727C322.838 368.626 330.887 360.577 341.063 355.582C351.424 350.586 363.173 348.088 376.31 348.088ZM376.31 353.639C368.909 353.639 362.711 359.19 357.715 370.291C352.72 381.207 350.222 399.062 350.222 423.855C350.222 448.648 352.72 466.503 357.715 477.419C362.711 488.335 368.909 493.793 376.31 493.793C383.896 493.793 390.094 488.335 394.905 477.419C399.9 466.503 402.398 448.648 402.398 423.855C402.398 399.062 399.9 381.207 394.905 370.291C390.094 359.19 383.896 353.639 376.31 353.639Z" fill="#4F0B0C"/>
<path fill-rule="evenodd" clip-rule="evenodd" d="M570.251 473.902C567.745 480.807 565.535 487.669 563.629 494.486C560.135 494.578 556.665 494.717 553.219 494.903C546.558 495.088 541.469 495.274 537.954 495.459V489.63C543.505 489.63 547.39 488.243 549.61 485.467C551.831 482.692 552.941 477.419 552.941 469.648V383.335C552.941 378.709 552.478 374.731 551.553 371.401C550.628 367.886 548.963 365.202 546.558 363.352C544.152 361.318 540.544 360.3 535.733 360.3C530.738 360.3 526.112 361.687 521.857 364.463C517.786 367.238 514.456 371.123 511.866 376.119C509.46 380.93 508.257 386.388 508.257 392.493V469.648C508.257 477.419 509.368 482.692 511.588 485.467C513.993 488.243 517.879 489.63 523.244 489.63V495.459C519.914 495.274 515.011 495.088 508.535 494.903C502.245 494.534 495.676 494.349 488.83 494.349C481.8 494.349 474.583 494.534 467.183 494.903C459.782 495.088 454.231 495.274 450.531 495.459V489.63C457.007 489.63 461.539 488.243 464.13 485.467C466.905 482.692 468.293 477.419 468.293 469.648V382.225C468.293 373.899 466.998 367.793 464.407 363.908C462.002 359.837 457.377 357.802 450.531 357.802V351.974C456.452 352.529 462.187 352.807 467.738 352.807C475.509 352.807 482.725 352.529 489.385 351.974C496.231 351.233 502.522 350.216 508.257 348.921V373.899C512.883 364.463 519.174 357.802 527.13 353.916C535.086 350.031 543.967 348.088 553.773 348.088C561.544 348.088 567.835 349.106 572.646 351.141C577.642 352.991 581.526 355.582 584.302 358.912C587.262 362.427 589.39 366.961 590.686 372.511C592.165 378.062 592.905 385.555 592.905 394.992V425.828C583.87 441.176 576.313 457.204 570.251 473.902Z" fill="#4F0B0C"/>
<path d="M1300.28 556.416C1310.99 552.239 1321.17 547.54 1330.83 542.32C1340.48 537.099 1348.71 531.356 1355.49 525.091C1365.67 515.954 1373.77 505.382 1379.77 493.374C1386.04 481.105 1389.17 467.922 1389.17 453.826C1389.17 448.605 1388.65 445.211 1387.6 443.645C1386.56 441.818 1384.99 440.904 1382.9 440.904C1375.86 440.904 1368.02 445.342 1359.41 454.217C1350.8 463.093 1342.57 474.709 1334.74 489.067C1327.17 503.424 1320.91 519.087 1315.95 536.055C1311.25 553.022 1308.9 569.468 1308.9 585.392C1308.9 600.01 1311.64 610.06 1317.12 615.542C1322.86 620.763 1330.17 623.374 1339.05 623.374C1346.1 623.374 1354.84 621.024 1365.28 616.326C1375.73 611.627 1386.04 603.273 1396.22 591.265L1402.48 594.398C1397 603.012 1389.82 611.366 1380.95 619.458C1372.07 627.55 1361.76 634.207 1350.01 639.428C1338.27 644.388 1325.47 646.868 1311.64 646.868C1294.15 646.868 1279.53 642.299 1267.78 633.163C1256.04 623.765 1250.16 609.93 1250.16 591.657C1250.16 577.822 1252.38 563.595 1256.82 548.976C1261.52 534.358 1268.04 520.261 1276.4 506.687C1284.75 492.852 1294.8 480.452 1306.55 469.488C1318.3 458.264 1331.35 449.519 1345.71 443.254C1360.06 436.727 1375.33 433.464 1391.52 433.464C1403 433.464 1412.66 436.075 1420.49 441.296C1428.33 446.256 1432.24 453.956 1432.24 464.398C1432.24 474.579 1429.37 484.107 1423.63 492.982C1418.14 501.858 1410.7 509.95 1401.31 517.259C1391.91 524.569 1381.34 531.095 1369.59 536.838C1358.1 542.581 1346.23 547.541 1333.96 551.717C1321.95 555.894 1310.59 559.157 1299.89 561.506L1300.28 556.416Z" fill="#4F0B0C"/>
<path d="M1202.86 608.102C1201.03 614.889 1200.77 619.849 1202.08 622.981C1203.64 626.114 1206.12 627.68 1209.52 627.68C1212.39 627.68 1215.91 625.853 1220.09 622.198C1224.27 618.283 1228.57 609.799 1233.01 596.746L1240.06 577.951H1247.5L1237.71 606.536C1234.05 617.238 1229.36 625.461 1223.61 631.204C1217.87 636.947 1211.74 640.993 1205.21 643.343C1198.68 645.692 1192.16 646.867 1185.63 646.867C1174.41 646.867 1165.92 644.256 1160.18 639.035C1154.44 633.554 1151.17 626.244 1150.39 617.108C1149.87 607.71 1151.3 596.877 1154.7 584.608L1216.17 380.211C1218.78 371.335 1218.52 364.809 1215.39 360.632C1212.26 356.456 1204.3 354.367 1191.5 354.367L1194.25 346.145C1213.04 345.883 1229.49 344.448 1243.58 341.837C1257.94 338.966 1271.78 335.05 1285.09 330.09L1202.86 608.102Z" fill="#4F0B0C"/>
<path d="M1121.85 441.296C1112.19 441.296 1102.66 445.472 1093.26 453.826C1083.87 461.918 1075.38 472.882 1067.81 486.717C1060.5 500.553 1054.63 516.085 1050.19 533.314C1045.75 550.543 1043.54 568.293 1043.54 586.567C1043.54 600.402 1046.28 610.452 1051.76 616.717C1057.24 622.721 1064.42 625.723 1073.3 625.723C1081.65 625.723 1090.13 623.243 1098.75 618.283C1107.36 613.323 1116.11 604.317 1124.98 591.265L1132.81 594.398C1127.59 603.012 1120.8 611.366 1112.45 619.458C1104.36 627.55 1094.83 634.207 1083.87 639.428C1073.16 644.388 1061.03 646.868 1047.45 646.868C1029.18 646.868 1014.17 642.038 1002.42 632.38C990.675 622.46 984.801 607.189 984.801 586.567C984.801 570.382 987.934 553.414 994.199 535.663C1000.46 517.912 1009.34 501.336 1020.83 485.934C1032.57 470.272 1046.67 457.611 1063.11 447.952C1079.56 438.294 1097.96 433.464 1118.33 433.464C1132.68 433.464 1144.17 437.119 1152.78 444.428C1161.66 451.476 1166.1 460.352 1166.1 471.055C1166.1 478.103 1164.4 485.021 1161.01 491.808C1157.61 498.334 1152.91 503.816 1146.91 508.253C1141.17 512.43 1134.64 514.518 1127.33 514.518C1121.07 514.518 1115.71 512.561 1111.28 508.645C1107.1 504.468 1105.01 498.856 1105.01 491.808C1105.01 481.105 1108.54 471.968 1115.58 464.398C1122.89 456.567 1131.25 451.476 1140.64 449.127C1138.56 446.517 1135.95 444.559 1132.81 443.254C1129.94 441.948 1126.29 441.296 1121.85 441.296Z" fill="#4F0B0C"/>
<path fill-rule="evenodd" clip-rule="evenodd" d="M765.361 344.495C771.011 342.635 776.691 341.704 782.401 341.704C789.171 341.704 794.746 342.672 799.126 344.608C803.905 346.544 807.887 349.447 811.073 353.318C796.737 356.803 783.994 364.352 772.844 375.966C762.092 387.192 756.716 400.742 756.716 416.615C756.716 427.067 759.901 435.39 766.273 441.585C773.043 447.392 781.206 450.295 790.764 450.295C801.914 450.295 811.869 447.198 820.63 441.004C829.789 434.423 836.957 426.293 842.134 416.615C847.311 406.549 849.899 396.29 849.899 385.838C849.899 369.965 843.13 356.803 829.59 346.35C816.449 335.51 798.927 330.09 777.025 330.09C745.964 330.09 717.889 337.252 692.801 351.576C667.713 365.9 646.209 384.676 628.289 407.904C610.768 430.745 597.228 455.328 587.671 481.653C578.114 507.978 573.335 533.142 573.335 557.144C573.335 587.727 582.295 610.374 600.215 625.086C618.135 639.409 641.032 646.571 668.908 646.571C689.615 646.571 708.133 642.894 724.46 635.538C741.185 627.795 755.72 617.924 768.065 605.922C780.808 593.921 791.162 581.533 799.126 568.758L787.18 564.112C773.64 583.469 760.3 596.825 747.158 604.18C734.017 611.536 721.075 615.214 708.332 615.214C705.123 615.214 702.06 614.964 699.142 614.464C693.036 613.856 611.19 603.362 650.317 480.49C688.801 353.612 765.361 344.495 765.361 344.495Z" fill="#4F0B0C"/>
<path d="M928.642 617.5L886.745 664.88L855.419 472.621C854.114 465.573 852.809 460.744 851.504 458.133C850.199 455.523 848.11 454.217 845.239 454.217C842.628 454.217 840.018 456.045 837.407 459.699C834.797 463.093 831.273 470.924 826.835 483.193L819.787 502.38H812.347L822.136 473.796C827.618 457.872 834.536 447.169 842.889 441.687C851.243 436.205 860.379 433.464 870.299 433.464C881.002 433.464 889.616 436.466 896.142 442.47C902.668 448.213 907.106 459.308 909.456 475.754L928.642 617.5ZM835.058 695.813C847.327 689.809 859.988 681.586 873.04 671.145C886.092 660.964 899.405 647.129 912.98 629.639C927.598 611.627 940.389 592.179 951.353 571.295C962.317 550.151 970.409 529.92 975.63 510.603C965.971 505.121 957.488 498.073 950.178 489.458C942.869 480.583 939.345 470.794 939.606 460.091C939.606 451.737 941.955 445.211 946.654 440.513C951.353 435.814 957.749 433.464 965.841 433.464C974.977 433.464 981.504 436.597 985.419 442.862C989.596 449.127 991.684 457.872 991.684 469.097C991.684 481.366 989.596 494.81 985.419 509.428C981.243 524.047 975.5 539.187 968.19 554.85C960.881 570.251 952.658 585.261 943.522 599.88C934.385 614.498 924.727 627.811 914.546 639.819C906.454 650 897.317 659.528 887.136 668.404C877.217 677.279 866.644 685.241 855.419 692.289C844.456 699.337 832.97 704.95 820.962 709.127C815.219 711.215 809.998 712.651 805.299 713.434C800.6 714.478 796.554 715 793.161 715C784.807 715 778.281 713.042 773.582 709.127C768.622 705.472 766.143 700.12 766.143 693.072C766.143 686.285 768.753 680.542 773.974 675.843C778.934 671.145 785.329 668.795 793.161 668.795C801.514 668.795 809.084 671.145 815.871 675.843C822.92 680.803 829.315 687.46 835.058 695.813Z" fill="#4F0B0C"/>
<path d="M1432.96 239.92C1432.96 243.821 1432.72 247.884 1432.23 252.11H1337.89C1338.54 260.561 1341.22 267.062 1345.93 271.613C1350.81 276.001 1356.74 278.195 1363.73 278.195C1374.13 278.195 1381.36 273.807 1385.43 265.031H1429.79C1427.52 273.97 1423.38 282.015 1417.36 289.166C1411.51 296.317 1404.12 301.924 1395.18 305.987C1386.24 310.051 1376.24 312.082 1365.19 312.082C1351.86 312.082 1340 309.238 1329.6 303.55C1319.2 297.861 1311.07 289.735 1305.22 279.17C1299.37 268.606 1296.44 256.254 1296.44 242.114C1296.44 227.974 1299.29 215.622 1304.97 205.058C1310.83 194.494 1318.95 186.368 1329.35 180.679C1339.75 174.991 1351.7 172.146 1365.19 172.146C1378.36 172.146 1390.06 174.909 1400.3 180.435C1410.54 185.961 1418.5 193.844 1424.19 204.083C1430.04 214.322 1432.96 226.268 1432.96 239.92ZM1390.3 228.95C1390.3 221.798 1387.86 216.11 1382.99 211.884C1378.11 207.659 1372.02 205.546 1364.7 205.546C1357.71 205.546 1351.78 207.577 1346.91 211.64C1342.19 215.704 1339.27 221.473 1338.13 228.95H1390.3Z" fill="#4F0B0C"/>
<path d="M1229.99 172.634C1246.89 172.634 1260.3 177.753 1270.21 187.992C1280.29 198.232 1285.33 212.453 1285.33 230.656V310.132H1243.88V236.263C1243.88 227.487 1241.53 220.742 1236.81 216.028C1232.26 211.153 1225.92 208.715 1217.8 208.715C1209.67 208.715 1203.25 211.153 1198.54 216.028C1193.99 220.742 1191.71 227.487 1191.71 236.263V310.132H1150.27V236.263C1150.27 227.487 1147.91 220.742 1143.2 216.028C1138.65 211.153 1132.31 208.715 1124.18 208.715C1116.05 208.715 1109.63 211.153 1104.92 216.028C1100.37 220.742 1098.1 227.487 1098.1 236.263V310.132H1056.41V174.096H1098.1V191.162C1102.32 185.473 1107.85 181.004 1114.67 177.753C1121.5 174.34 1129.22 172.634 1137.83 172.634C1148.07 172.634 1157.17 174.828 1165.14 179.216C1173.26 183.604 1179.6 189.862 1184.15 197.988C1188.87 190.512 1195.29 184.417 1203.41 179.704C1211.54 174.99 1220.4 172.634 1229.99 172.634Z" fill="#4F0B0C"/>
<path d="M1003.57 196.769C1008.44 189.293 1014.54 183.442 1021.85 179.216C1029.17 174.828 1037.29 172.634 1046.23 172.634V216.76H1034.77C1024.37 216.76 1016.57 219.035 1011.37 223.586C1006.17 227.974 1003.57 235.775 1003.57 246.99V310.132H961.881V174.096H1003.57V196.769Z" fill="#4F0B0C"/>
<path d="M878.329 312.082C865.002 312.082 852.975 309.238 842.248 303.55C831.684 297.861 823.314 289.735 817.138 279.17C811.124 268.606 808.118 256.254 808.118 242.114C808.118 228.137 811.206 215.866 817.382 205.302C823.558 194.575 832.009 186.368 842.736 180.679C853.463 174.991 865.49 172.146 878.817 172.146C892.144 172.146 904.171 174.991 914.898 180.679C925.625 186.368 934.076 194.575 940.252 205.302C946.428 215.866 949.516 228.137 949.516 242.114C949.516 256.092 946.347 268.444 940.008 279.17C933.832 289.735 925.3 297.861 914.41 303.55C903.684 309.238 891.657 312.082 878.329 312.082ZM878.329 276.001C886.293 276.001 893.038 273.076 898.564 267.225C904.252 261.374 907.097 253.004 907.097 242.114C907.097 231.225 904.334 222.855 898.808 217.004C893.444 211.153 886.781 208.227 878.817 208.227C870.691 208.227 863.946 211.153 858.582 217.004C853.219 222.692 850.537 231.062 850.537 242.114C850.537 253.004 853.138 261.374 858.339 267.225C863.702 273.076 870.366 276.001 878.329 276.001Z" fill="#4F0B0C"/>
<path d="M806.569 208.715H784.141V310.132H742.452V208.715H727.337V174.097H742.452V170.196C742.452 153.456 747.247 140.779 756.836 132.165C766.425 123.388 780.484 119 799.012 119C802.1 119 804.375 119.081 805.838 119.244V154.593C797.874 154.106 792.267 155.244 789.016 158.007C785.766 160.769 784.141 165.727 784.141 172.878V174.097H806.569V208.715Z" fill="#4F0B0C"/>
<path d="M666.675 172.634C682.603 172.634 695.28 177.835 704.707 188.236C714.296 198.475 719.09 212.615 719.09 230.656V310.132H677.646V236.263C677.646 227.161 675.289 220.092 670.576 215.053C665.863 210.015 659.524 207.496 651.56 207.496C643.597 207.496 637.258 210.015 632.545 215.053C627.831 220.092 625.475 227.161 625.475 236.263V310.132H583.787V174.096H625.475V192.137C629.701 186.123 635.389 181.41 642.54 177.997C649.691 174.421 657.737 172.634 666.675 172.634Z" fill="#4F0B0C"/>
<path d="M419.786 241.871C419.786 227.893 422.387 215.622 427.587 205.058C432.951 194.494 440.183 186.368 449.285 180.679C458.386 174.991 468.544 172.146 479.759 172.146C489.348 172.146 497.718 174.097 504.869 177.997C512.183 181.898 517.79 187.018 521.691 193.356V174.097H563.379V310.132H521.691V290.872C517.627 297.211 511.939 302.331 504.625 306.231C497.474 310.132 489.104 312.082 479.515 312.082C468.463 312.082 458.386 309.238 449.285 303.55C440.183 297.699 432.951 289.491 427.587 278.927C422.387 268.2 419.786 255.848 419.786 241.871ZM521.691 242.114C521.691 231.713 518.765 223.505 512.914 217.491C507.226 211.478 500.237 208.471 491.948 208.471C483.659 208.471 476.589 211.478 470.738 217.491C465.05 223.342 462.206 231.469 462.206 241.871C462.206 252.272 465.05 260.561 470.738 266.737C476.589 272.751 483.659 275.757 491.948 275.757C500.237 275.757 507.226 272.751 512.914 266.737C518.765 260.724 521.691 252.516 521.691 242.114Z" fill="#4F0B0C"/>
<path d="M375.237 196.769C380.113 189.293 386.208 183.442 393.521 179.216C400.835 174.828 408.961 172.634 417.9 172.634V216.76H406.442C396.041 216.76 388.239 219.035 383.038 223.586C377.837 227.974 375.237 235.775 375.237 246.99V310.132H333.549V174.096H375.237V196.769Z" fill="#4F0B0C"/>
<path fill-rule="evenodd" clip-rule="evenodd" d="M322.378 172.39V138.99H190V172.39H235.345V300.902C243.419 300.892 250.825 300.214 257.561 298.867C264.536 297.317 271.027 294.895 277.033 291.602V172.39H322.378Z" fill="#4F0B0C"/>
</svg>
