<svg width="1622" height="835" viewBox="0 0 1622 835" fill="none" xmlns="http://www.w3.org/2000/svg">
<rect width="1622" height="835" fill="#9EAD72"/>
<path d="M233.528 287.638L233.529 306.072L233.528 334.432H267.197V340.139H233.528V455.413C233.528 461.119 234.575 465.209 236.667 467.682C238.76 469.964 241.898 471.106 246.083 471.106C249.507 471.106 252.931 469.869 256.355 467.396C259.779 464.733 262.822 460.263 265.485 453.986L270.336 456.554C267.293 465.114 262.632 472.152 256.355 477.668C250.268 483.185 241.898 485.943 231.246 485.943C224.969 485.943 219.452 485.087 214.697 483.375C209.941 481.853 205.947 479.475 202.713 476.242C198.528 472.057 195.77 466.921 194.438 460.834C193.107 454.557 192.441 446.472 192.441 436.581V340.139H168.473V334.432H192.441V296.769C192.49 296.769 192.54 296.769 192.59 296.769C200.521 296.761 207.795 296.095 214.411 294.772C221.259 293.25 227.632 290.872 233.528 287.638Z" fill="#F3EEEA"/>
<path d="M337.005 330.438C350.891 330.438 363.065 333.006 373.528 338.142C383.99 343.278 392.169 351.552 398.066 362.966C403.963 374.379 406.911 389.501 406.911 408.333C406.911 427.165 403.963 442.287 398.066 453.701C392.169 464.924 383.99 473.103 373.528 478.239C363.065 483.375 350.891 485.943 337.005 485.943C323.5 485.943 311.421 483.375 300.768 478.239C290.306 473.103 282.032 464.924 275.945 453.701C270.048 442.287 267.099 427.165 267.099 408.333C267.099 389.501 270.048 374.379 275.945 362.966C282.032 351.552 290.306 343.278 300.768 338.142C311.421 333.006 323.5 330.438 337.005 330.438ZM337.005 336.144C329.396 336.144 323.024 341.851 317.888 353.264C312.752 364.487 310.184 382.844 310.184 408.333C310.184 433.823 312.752 452.179 317.888 463.402C323.024 474.625 329.396 480.236 337.005 480.236C344.804 480.236 351.177 474.625 356.122 463.402C361.258 452.179 363.826 433.823 363.826 408.333C363.826 382.844 361.258 364.487 356.122 353.264C351.177 341.851 344.804 336.144 337.005 336.144Z" fill="#F3EEEA"/>
<path fill-rule="evenodd" clip-rule="evenodd" d="M536.395 459.786C533.818 466.885 531.546 473.94 529.586 480.948C525.994 481.043 522.427 481.186 518.884 481.377C512.036 481.568 506.804 481.758 503.19 481.948V475.956C508.897 475.956 512.892 474.53 515.174 471.676C517.457 468.823 518.598 463.402 518.598 455.412V366.675C518.598 361.919 518.122 357.829 517.171 354.406C516.22 350.792 514.508 348.033 512.036 346.131C509.562 344.039 505.853 342.993 500.907 342.993C495.771 342.993 491.016 344.419 486.641 347.272C482.456 350.125 479.032 354.12 476.369 359.256C473.896 364.202 472.66 369.813 472.66 376.09V455.412C472.66 463.402 473.801 468.823 476.084 471.676C478.556 474.53 482.551 475.956 488.067 475.956V481.948C484.644 481.758 479.603 481.568 472.945 481.377C466.478 480.997 459.725 480.807 452.687 480.807C445.459 480.807 438.04 480.997 430.431 481.377C422.822 481.568 417.116 481.758 413.311 481.948V475.956C419.969 475.956 424.629 474.53 427.292 471.676C430.145 468.823 431.572 463.402 431.572 455.412V365.533C431.572 356.973 430.24 350.697 427.578 346.702C425.105 342.517 420.35 340.424 413.311 340.424V334.433C419.398 335.003 425.295 335.289 431.002 335.289C438.991 335.289 446.41 335.003 453.257 334.433C460.295 333.671 466.763 332.625 472.66 331.294V356.973C477.415 347.272 483.883 340.424 492.062 336.429C500.242 332.435 509.372 330.438 519.454 330.438C527.443 330.438 533.911 331.484 538.857 333.576C543.993 335.478 547.987 338.142 550.841 341.566C553.884 345.18 556.071 349.841 557.403 355.547C558.925 361.254 559.685 368.958 559.685 378.659V410.362C550.396 426.141 542.627 442.619 536.395 459.786Z" fill="#F3EEEA"/>
<path d="M1320.49 556.264C1332.04 551.755 1343.03 546.683 1353.46 541.047C1363.89 535.41 1372.76 529.211 1380.09 522.447C1391.08 512.584 1399.82 501.171 1406.3 488.208C1413.06 474.963 1416.44 460.731 1416.44 445.514C1416.44 439.877 1415.88 436.214 1414.75 434.523C1413.63 432.55 1411.94 431.564 1409.68 431.564C1402.07 431.564 1393.62 436.355 1384.32 445.936C1375.02 455.518 1366.14 468.058 1357.69 483.558C1349.51 499.057 1342.75 515.966 1337.4 534.283C1332.32 552.601 1329.79 570.355 1329.79 587.545C1329.79 603.326 1332.75 614.176 1338.67 620.094C1344.87 625.73 1352.76 628.548 1362.34 628.548C1369.95 628.548 1379.39 626.012 1390.66 620.939C1401.93 615.867 1413.06 606.849 1424.05 593.886L1430.82 597.267C1424.9 606.567 1417.15 615.585 1407.57 624.321C1397.99 633.057 1386.85 640.243 1374.17 645.879C1361.49 651.234 1347.68 653.911 1332.75 653.911C1313.87 653.911 1298.08 648.979 1285.4 639.116C1272.72 628.971 1266.38 614.035 1266.38 594.308C1266.38 579.373 1268.78 564.014 1273.57 548.233C1278.64 532.451 1285.69 517.234 1294.7 502.58C1303.72 487.644 1314.57 474.258 1327.25 462.422C1339.93 450.304 1354.02 440.864 1369.52 434.1C1385.02 427.055 1401.51 423.532 1418.98 423.532C1431.38 423.532 1441.81 426.351 1450.26 431.987C1458.72 437.341 1462.94 445.654 1462.94 456.927C1462.94 467.917 1459.84 478.203 1453.64 487.785C1447.73 497.366 1439.69 506.102 1429.55 513.993C1419.4 521.884 1407.99 528.929 1395.31 535.129C1382.91 541.328 1370.09 546.683 1356.84 551.192C1343.88 555.701 1331.62 559.223 1320.07 561.76L1320.49 556.264Z" fill="#F3EEEA"/>
<path d="M1215.32 612.061C1213.34 619.388 1213.06 624.742 1214.47 628.124C1216.16 631.506 1218.84 633.197 1222.5 633.197C1225.6 633.197 1229.41 631.224 1233.91 627.279C1238.42 623.052 1243.07 613.893 1247.86 599.802L1255.47 579.512H1263.5L1252.94 610.37C1248.99 621.924 1243.92 630.801 1237.72 637.001C1231.52 643.201 1224.9 647.569 1217.85 650.105C1210.81 652.641 1203.76 653.91 1196.72 653.91C1184.6 653.91 1175.44 651.092 1169.24 645.455C1163.04 639.537 1159.52 631.647 1158.67 621.783C1158.11 611.638 1159.66 599.943 1163.32 586.698L1229.69 366.042C1232.51 356.461 1232.22 349.416 1228.84 344.907C1225.46 340.398 1216.87 338.143 1203.06 338.143L1206.02 329.266C1226.31 328.984 1244.06 327.435 1259.28 324.616C1274.78 321.517 1289.71 317.289 1304.08 311.935L1215.32 612.061Z" fill="#F3EEEA"/>
<path d="M1127.86 431.987C1117.43 431.987 1107.15 436.496 1097 445.514C1086.86 454.25 1077.7 466.086 1069.53 481.021C1061.63 495.957 1055.29 512.725 1050.5 531.324C1045.71 549.924 1043.32 569.087 1043.32 588.813C1043.32 603.749 1046.28 614.599 1052.19 621.362C1058.11 627.844 1065.86 631.084 1075.44 631.084C1084.46 631.084 1093.62 628.407 1102.92 623.053C1112.22 617.699 1121.66 607.976 1131.24 593.886L1139.7 597.267C1134.06 606.567 1126.73 615.585 1117.71 624.321C1108.98 633.057 1098.69 640.243 1086.86 645.879C1075.3 651.234 1062.2 653.911 1047.54 653.911C1027.82 653.911 1011.61 648.697 998.932 638.271C986.251 627.562 979.91 611.076 979.91 588.813C979.91 571.341 983.292 553.023 990.055 533.861C996.819 514.698 1006.4 496.803 1018.8 480.176C1031.48 463.267 1046.7 449.6 1064.45 439.173C1082.21 428.746 1102.07 423.532 1124.06 423.532C1139.55 423.532 1151.95 427.478 1161.25 435.368C1170.84 442.977 1175.63 452.559 1175.63 464.113C1175.63 471.722 1173.79 479.19 1170.13 486.517C1166.47 493.562 1161.39 499.48 1154.91 504.271C1148.71 508.78 1141.67 511.034 1133.78 511.034C1127.01 511.034 1121.24 508.92 1116.45 504.693C1111.94 500.184 1109.68 494.126 1109.68 486.517C1109.68 474.963 1113.49 465.099 1121.1 456.927C1128.99 448.473 1138 442.977 1148.15 440.441C1145.9 437.623 1143.08 435.509 1139.7 434.1C1136.6 432.691 1132.65 431.987 1127.86 431.987Z" fill="#F3EEEA"/>
<path fill-rule="evenodd" clip-rule="evenodd" d="M743.014 327.486C749.114 325.477 755.246 324.473 761.41 324.473C768.718 324.473 774.737 325.518 779.466 327.608C784.625 329.697 788.924 332.832 792.363 337.011C776.886 340.772 763.13 348.922 751.093 361.46C739.485 373.58 733.682 388.207 733.682 405.342C733.682 416.626 737.121 425.612 743.999 432.298C751.308 438.567 760.12 441.702 770.438 441.702C782.475 441.702 793.223 438.358 802.68 431.672C812.568 424.567 820.306 415.79 825.895 405.342C831.483 394.476 834.278 383.401 834.278 372.117C834.278 354.982 826.97 340.772 812.353 329.488C798.166 317.786 779.251 311.935 755.606 311.935C722.074 311.935 691.767 319.667 664.683 335.13C637.6 350.594 614.385 370.863 595.04 395.939C576.124 420.596 561.508 447.135 551.19 475.554C540.873 503.973 535.714 531.138 535.714 557.05C535.714 590.066 545.387 614.515 564.732 630.396C584.077 645.859 608.796 653.591 638.889 653.591C661.244 653.591 681.234 649.621 698.86 641.68C716.916 633.322 732.607 622.664 745.934 609.709C759.691 596.753 770.868 583.379 779.466 569.588L766.569 564.572C751.952 585.469 737.551 599.887 723.364 607.828C709.178 615.769 695.206 619.739 681.449 619.739C677.985 619.739 674.679 619.469 671.529 618.929C664.937 618.273 576.58 606.945 618.819 474.298C660.365 337.328 743.014 327.486 743.014 327.486Z" fill="#F3EEEA"/>
<path d="M919.284 622.207L874.054 673.356L840.237 465.804C838.828 458.195 837.419 452.981 836.01 450.163C834.601 447.345 832.346 445.936 829.246 445.936C826.428 445.936 823.61 447.909 820.792 451.854C817.974 455.518 814.17 463.972 809.379 477.217L801.77 497.93H793.738L804.306 467.072C810.224 449.882 817.692 438.327 826.71 432.409C835.728 426.491 845.591 423.532 856.3 423.532C867.854 423.532 877.154 426.773 884.199 433.255C891.244 439.455 896.035 451.432 898.571 469.185L919.284 622.207ZM818.256 706.75C831.501 700.268 845.169 691.391 859.259 680.119C873.349 669.129 887.722 654.193 902.376 635.312C918.157 615.867 931.966 594.872 943.801 572.327C955.637 549.501 964.374 527.661 970.01 506.807C959.583 500.889 950.424 493.28 942.533 483.98C934.643 474.399 930.838 463.831 931.12 452.277C931.12 443.259 933.656 436.214 938.729 431.141C943.802 426.069 950.706 423.532 959.442 423.532C969.305 423.532 976.35 426.914 980.578 433.678C985.086 440.441 987.341 449.882 987.341 461.999C987.341 475.244 985.086 489.757 980.578 505.539C976.069 521.32 969.869 537.665 961.978 554.573C954.088 571.2 945.211 587.404 935.347 603.185C925.484 618.967 915.057 633.339 904.067 646.302C895.33 657.293 885.467 667.579 874.477 677.16C863.768 686.742 852.355 695.337 840.237 702.946C828.401 710.554 816.001 716.613 803.038 721.122C796.838 723.377 791.202 724.927 786.13 725.772C781.057 726.899 776.689 727.463 773.026 727.463C764.008 727.463 756.962 725.349 751.89 721.122C746.536 717.177 743.858 711.4 743.858 703.791C743.858 696.464 746.676 690.264 752.313 685.192C757.667 680.119 764.571 677.583 773.026 677.583C782.043 677.583 790.216 680.119 797.543 685.192C805.152 690.546 812.056 697.732 818.256 706.75Z" fill="#F3EEEA"/>
<path d="M1473 223.66C1473 227.374 1472.77 231.242 1472.3 235.266H1382.48C1383.1 243.312 1385.65 249.501 1390.14 253.834C1394.78 258.012 1400.43 260.101 1407.08 260.101C1416.98 260.101 1423.87 255.923 1427.74 247.567H1469.98C1467.82 256.078 1463.87 263.737 1458.14 270.546C1452.57 277.354 1445.53 282.693 1437.02 286.561C1428.51 290.43 1419 292.364 1408.47 292.364C1395.79 292.364 1384.49 289.656 1374.59 284.24C1364.68 278.824 1356.95 271.087 1351.38 261.029C1345.8 250.971 1343.02 239.211 1343.02 225.749C1343.02 212.287 1345.73 200.527 1351.14 190.469C1356.71 180.411 1364.45 172.674 1374.35 167.258C1384.26 161.842 1395.63 159.134 1408.47 159.134C1421.01 159.134 1432.15 161.765 1441.9 167.026C1451.65 172.287 1459.23 179.792 1464.64 189.54C1470.21 199.289 1473 210.662 1473 223.66ZM1432.38 213.215C1432.38 206.407 1430.06 200.991 1425.42 196.968C1420.78 192.945 1414.97 190.933 1408.01 190.933C1401.36 190.933 1395.71 192.867 1391.07 196.736C1386.58 200.604 1383.79 206.097 1382.71 213.215H1432.38Z" fill="#F3EEEA"/>
<path d="M1277.43 159.599C1293.52 159.599 1306.29 164.473 1315.73 174.221C1325.32 183.97 1330.12 197.51 1330.12 214.84V290.507H1290.66V220.179C1290.66 211.823 1288.41 205.401 1283.93 200.914C1279.59 196.272 1273.56 193.951 1265.82 193.951C1258.09 193.951 1251.97 196.272 1247.49 200.914C1243.15 205.401 1240.99 211.823 1240.99 220.179V290.507H1201.53V220.179C1201.53 211.823 1199.28 205.401 1194.8 200.914C1190.46 196.272 1184.43 193.951 1176.69 193.951C1168.96 193.951 1162.84 196.272 1158.36 200.914C1154.02 205.401 1151.86 211.823 1151.86 220.179V290.507H1112.17V160.991H1151.86V177.239C1155.88 171.823 1161.14 167.568 1167.64 164.473C1174.14 161.223 1181.49 159.599 1189.69 159.599C1199.44 159.599 1208.1 161.688 1215.69 165.866C1223.42 170.043 1229.46 176.001 1233.79 183.738C1238.28 176.62 1244.39 170.817 1252.13 166.33C1259.86 161.842 1268.3 159.599 1277.43 159.599Z" fill="#F3EEEA"/>
<path d="M1059.54 182.577C1064.18 175.459 1069.99 169.889 1076.95 165.866C1083.91 161.688 1091.65 159.599 1100.16 159.599V201.61H1089.25C1079.35 201.61 1071.92 203.776 1066.97 208.109C1062.02 212.287 1059.54 219.714 1059.54 230.391V290.507H1019.85V160.991H1059.54V182.577Z" fill="#F3EEEA"/>
<path d="M937.981 292.364C925.293 292.364 913.842 289.656 903.629 284.24C893.571 278.824 885.602 271.087 879.722 261.029C873.997 250.971 871.134 239.211 871.134 225.749C871.134 212.442 874.074 200.759 879.954 190.701C885.834 180.488 893.881 172.674 904.094 167.258C914.306 161.842 925.757 159.134 938.445 159.134C951.134 159.134 962.585 161.842 972.797 167.258C983.01 172.674 991.056 180.488 996.936 190.701C1002.82 200.759 1005.76 212.442 1005.76 225.749C1005.76 239.057 1002.74 250.817 996.704 261.029C990.824 271.087 982.701 278.824 972.333 284.24C962.12 289.656 950.67 292.364 937.981 292.364ZM937.981 258.012C945.563 258.012 951.985 255.227 957.246 249.656C962.662 244.086 965.37 236.117 965.37 225.749C965.37 215.382 962.739 207.413 957.478 201.842C952.372 196.271 946.028 193.486 938.445 193.486C930.708 193.486 924.287 196.271 919.18 201.842C914.074 207.258 911.521 215.227 911.521 225.749C911.521 236.117 913.997 244.086 918.948 249.656C924.055 255.227 930.399 258.012 937.981 258.012Z" fill="#F3EEEA"/>
<path d="M867.339 193.95H845.985V290.507H806.295V193.95H791.904V160.991H806.295V157.277C806.295 141.339 810.86 129.27 819.989 121.069C829.119 112.713 842.504 108.535 860.144 108.535C863.084 108.535 865.25 108.612 866.643 108.767V142.423C859.061 141.958 853.722 143.042 850.628 145.672C847.533 148.303 845.985 153.022 845.985 159.831V160.991H867.339V193.95Z" fill="#F3EEEA"/>
<path d="M732.573 292.364C721.278 292.364 711.22 290.43 702.4 286.561C693.579 282.693 686.616 277.432 681.51 270.778C676.403 263.969 673.541 256.387 672.922 248.031H712.148C712.612 252.519 714.701 256.155 718.415 258.94C722.129 261.726 726.693 263.118 732.109 263.118C737.061 263.118 740.852 262.19 743.483 260.333C746.268 258.322 747.66 255.768 747.66 252.674C747.66 248.96 745.726 246.252 741.858 244.55C737.989 242.693 731.722 240.681 723.057 238.515C713.773 236.349 706.036 234.105 699.846 231.784C693.657 229.308 688.318 225.517 683.831 220.411C679.344 215.15 677.1 208.109 677.1 199.289C677.1 191.861 679.111 185.13 683.135 179.096C687.313 172.906 693.347 168.032 701.239 164.473C709.285 160.914 718.802 159.134 729.788 159.134C746.036 159.134 758.802 163.157 768.086 171.204C777.525 179.25 782.941 189.927 784.333 203.235H747.66C747.042 198.747 745.03 195.188 741.626 192.558C738.376 189.927 734.043 188.612 728.628 188.612C723.985 188.612 720.427 189.54 717.951 191.397C715.475 193.099 714.237 195.498 714.237 198.593C714.237 202.306 716.171 205.092 720.04 206.948C724.063 208.805 730.252 210.662 738.608 212.519C748.202 214.995 756.016 217.471 762.051 219.946C768.086 222.267 773.347 226.136 777.834 231.552C782.477 236.813 784.875 243.931 785.03 252.906C785.03 260.488 782.863 267.296 778.531 273.331C774.353 279.211 768.241 283.853 760.194 287.258C752.303 290.662 743.096 292.364 732.573 292.364Z" fill="#F3EEEA"/>
<path d="M609.364 159.599C624.529 159.599 636.598 164.55 645.573 174.454C654.703 184.202 659.267 197.664 659.267 214.84V290.507H619.809V220.179C619.809 211.513 617.565 204.782 613.078 199.985C608.591 195.188 602.556 192.79 594.974 192.79C587.391 192.79 581.357 195.188 576.869 199.985C572.382 204.782 570.138 211.513 570.138 220.179V290.507H530.448V160.991H570.138V178.167C574.161 172.442 579.577 167.954 586.386 164.705C593.194 161.301 600.854 159.599 609.364 159.599Z" fill="#F3EEEA"/>
<path d="M371.985 225.517C371.985 212.21 374.461 200.527 379.413 190.469C384.519 180.411 391.405 172.674 400.07 167.258C408.736 161.842 418.407 159.134 429.084 159.134C438.213 159.134 446.182 160.991 452.991 164.705C459.954 168.419 465.293 173.293 469.006 179.328V160.991H508.697V290.507H469.006V272.171C465.138 278.205 459.722 283.08 452.759 286.793C445.95 290.507 437.981 292.364 428.852 292.364C418.329 292.364 408.736 289.656 400.07 284.24C391.405 278.67 384.519 270.855 379.413 260.797C374.461 250.585 371.985 238.824 371.985 225.517ZM469.006 225.749C469.006 215.846 466.221 208.032 460.65 202.306C455.235 196.581 448.581 193.718 440.689 193.718C432.797 193.718 426.066 196.581 420.496 202.306C415.08 207.877 412.372 215.614 412.372 225.517C412.372 235.42 415.08 243.312 420.496 249.192C426.066 254.917 432.797 257.78 440.689 257.78C448.581 257.78 455.235 254.917 460.65 249.192C466.221 243.467 469.006 235.652 469.006 225.749Z" fill="#F3EEEA"/>
<path d="M327.25 182.577C331.893 175.459 337.695 169.889 344.659 165.866C351.622 161.688 359.359 159.599 367.869 159.599V201.61H356.96C347.057 201.61 339.63 203.776 334.678 208.109C329.726 212.287 327.25 219.714 327.25 230.391V290.507H287.56V160.991H327.25V182.577Z" fill="#F3EEEA"/>
<path fill-rule="evenodd" clip-rule="evenodd" d="M276.031 158.258V126.34H148.66V158.258H192.29V281.072C200.059 281.063 207.184 280.415 213.665 279.127C220.376 277.646 226.622 275.332 232.401 272.185V158.258H276.031Z" fill="#F3EEEA"/>
</svg>
