<svg width="1622" height="835" viewBox="0 0 1622 835" fill="none" xmlns="http://www.w3.org/2000/svg">
<rect width="1622" height="835" fill="#FFC5D1"/>
<path d="M269.661 315.458L269.661 333.388L269.661 360.974H302.41V366.524H269.661V478.648C269.661 484.199 270.678 488.177 272.713 490.582C274.749 492.802 277.802 493.912 281.872 493.912C285.202 493.912 288.533 492.71 291.863 490.304C295.194 487.714 298.154 483.366 300.744 477.26L305.462 479.758C302.502 488.084 297.969 494.93 291.863 500.296C285.943 505.661 277.802 508.344 267.44 508.344C261.335 508.344 255.969 507.512 251.343 505.846C246.718 504.366 242.832 502.053 239.687 498.908C235.616 494.838 232.934 489.842 231.638 483.921C230.343 477.815 229.696 469.952 229.696 460.331V366.524H206.383V360.974H229.696V324.339C229.744 324.339 229.792 324.339 229.84 324.339C237.555 324.331 244.63 323.684 251.066 322.396C257.727 320.916 263.925 318.604 269.661 315.458Z" fill="#A4123F"/>
<path d="M370.31 357.088C383.817 357.088 395.658 359.586 405.834 364.582C416.011 369.577 423.966 377.626 429.702 388.727C435.438 399.828 438.306 414.538 438.306 432.855C438.306 451.172 435.438 465.881 429.702 476.983C423.966 487.899 416.011 495.855 405.834 500.851C395.658 505.846 383.817 508.344 370.31 508.344C357.173 508.344 345.424 505.846 335.063 500.851C324.887 495.855 316.838 487.899 310.918 476.983C305.182 465.881 302.314 451.172 302.314 432.855C302.314 414.538 305.182 399.828 310.918 388.727C316.838 377.626 324.887 369.577 335.063 364.582C345.424 359.586 357.173 357.088 370.31 357.088ZM370.31 362.639C362.909 362.639 356.711 368.19 351.715 379.291C346.72 390.207 344.222 408.062 344.222 432.855C344.222 457.648 346.72 475.503 351.715 486.419C356.711 497.335 362.909 502.793 370.31 502.793C377.896 502.793 384.094 497.335 388.905 486.419C393.9 475.503 396.398 457.648 396.398 432.855C396.398 408.062 393.9 390.207 388.905 379.291C384.094 368.19 377.896 362.639 370.31 362.639Z" fill="#A4123F"/>
<path fill-rule="evenodd" clip-rule="evenodd" d="M564.251 482.902C561.745 489.807 559.535 496.669 557.629 503.486C554.135 503.578 550.665 503.717 547.219 503.903C540.558 504.088 535.469 504.274 531.954 504.459V498.63C537.505 498.63 541.39 497.243 543.61 494.467C545.831 491.692 546.941 486.419 546.941 478.648V392.335C546.941 387.709 546.478 383.731 545.553 380.401C544.628 376.886 542.963 374.202 540.558 372.352C538.152 370.318 534.544 369.3 529.733 369.3C524.738 369.3 520.112 370.687 515.857 373.463C511.786 376.238 508.456 380.123 505.866 385.119C503.46 389.93 502.257 395.388 502.257 401.493V478.648C502.257 486.419 503.368 491.692 505.588 494.467C507.993 497.243 511.879 498.63 517.244 498.63V504.459C513.914 504.274 509.011 504.088 502.535 503.903C496.245 503.534 489.676 503.349 482.83 503.349C475.8 503.349 468.583 503.534 461.183 503.903C453.782 504.088 448.231 504.274 444.531 504.459V498.63C451.007 498.63 455.539 497.243 458.13 494.467C460.905 491.692 462.293 486.419 462.293 478.648V391.225C462.293 382.899 460.998 376.793 458.407 372.908C456.002 368.837 451.377 366.802 444.531 366.802V360.974C450.452 361.529 456.187 361.807 461.738 361.807C469.509 361.807 476.725 361.529 483.385 360.974C490.231 360.233 496.522 359.216 502.257 357.921V382.899C506.883 373.463 513.174 366.802 521.13 362.916C529.086 359.031 537.967 357.088 547.773 357.088C555.544 357.088 561.835 358.106 566.646 360.141C571.642 361.991 575.526 364.582 578.302 367.912C581.262 371.427 583.39 375.961 584.686 381.511C586.165 387.062 586.905 394.555 586.905 403.992V434.828C577.87 450.176 570.313 466.204 564.251 482.902Z" fill="#A4123F"/>
<path d="M1294.28 565.416C1304.99 561.239 1315.17 556.54 1324.83 551.32C1334.48 546.099 1342.71 540.356 1349.49 534.091C1359.67 524.954 1367.77 514.382 1373.77 502.374C1380.04 490.105 1383.17 476.922 1383.17 462.826C1383.17 457.605 1382.65 454.211 1381.6 452.645C1380.56 450.818 1378.99 449.904 1376.9 449.904C1369.86 449.904 1362.02 454.342 1353.41 463.217C1344.8 472.093 1336.57 483.709 1328.74 498.067C1321.17 512.424 1314.91 528.087 1309.95 545.055C1305.25 562.022 1302.9 578.468 1302.9 594.392C1302.9 609.01 1305.64 619.06 1311.12 624.542C1316.86 629.763 1324.17 632.374 1333.05 632.374C1340.1 632.374 1348.84 630.024 1359.28 625.326C1369.73 620.627 1380.04 612.273 1390.22 600.265L1396.48 603.398C1391 612.012 1383.82 620.366 1374.95 628.458C1366.07 636.55 1355.76 643.207 1344.01 648.428C1332.27 653.388 1319.47 655.868 1305.64 655.868C1288.15 655.868 1273.53 651.299 1261.78 642.163C1250.04 632.765 1244.16 618.93 1244.16 600.657C1244.16 586.822 1246.38 572.595 1250.82 557.976C1255.52 543.358 1262.04 529.261 1270.4 515.687C1278.75 501.852 1288.8 489.452 1300.55 478.488C1312.3 467.264 1325.35 458.519 1339.71 452.254C1354.06 445.727 1369.33 442.464 1385.52 442.464C1397 442.464 1406.66 445.075 1414.49 450.296C1422.33 455.256 1426.24 462.956 1426.24 473.398C1426.24 483.579 1423.37 493.107 1417.63 501.982C1412.14 510.858 1404.7 518.95 1395.31 526.259C1385.91 533.569 1375.34 540.095 1363.59 545.838C1352.1 551.581 1340.23 556.541 1327.96 560.717C1315.95 564.894 1304.59 568.157 1293.89 570.506L1294.28 565.416Z" fill="#A4123F"/>
<path d="M1196.86 617.102C1195.03 623.889 1194.77 628.849 1196.08 631.981C1197.64 635.114 1200.12 636.68 1203.52 636.68C1206.39 636.68 1209.91 634.853 1214.09 631.198C1218.27 627.283 1222.57 618.799 1227.01 605.746L1234.06 586.951H1241.5L1231.71 615.536C1228.05 626.238 1223.36 634.461 1217.61 640.204C1211.87 645.947 1205.74 649.993 1199.21 652.343C1192.68 654.692 1186.16 655.867 1179.63 655.867C1168.41 655.867 1159.92 653.256 1154.18 648.035C1148.44 642.554 1145.17 635.244 1144.39 626.108C1143.87 616.71 1145.3 605.877 1148.7 593.608L1210.17 389.211C1212.78 380.335 1212.52 373.809 1209.39 369.632C1206.26 365.456 1198.3 363.367 1185.5 363.367L1188.25 355.145C1207.04 354.883 1223.49 353.448 1237.58 350.837C1251.94 347.966 1265.78 344.05 1279.09 339.09L1196.86 617.102Z" fill="#A4123F"/>
<path d="M1115.85 450.296C1106.19 450.296 1096.66 454.472 1087.26 462.826C1077.87 470.918 1069.38 481.882 1061.81 495.717C1054.5 509.553 1048.63 525.085 1044.19 542.314C1039.75 559.543 1037.54 577.293 1037.54 595.567C1037.54 609.402 1040.28 619.452 1045.76 625.717C1051.24 631.721 1058.42 634.723 1067.3 634.723C1075.65 634.723 1084.13 632.243 1092.75 627.283C1101.36 622.323 1110.11 613.317 1118.98 600.265L1126.81 603.398C1121.59 612.012 1114.8 620.366 1106.45 628.458C1098.36 636.55 1088.83 643.207 1077.87 648.428C1067.16 653.388 1055.03 655.868 1041.45 655.868C1023.18 655.868 1008.17 651.038 996.422 641.38C984.675 631.46 978.801 616.189 978.801 595.567C978.801 579.382 981.934 562.414 988.199 544.663C994.464 526.912 1003.34 510.336 1014.83 494.934C1026.57 479.272 1040.67 466.611 1057.11 456.952C1073.56 447.294 1091.96 442.464 1112.33 442.464C1126.68 442.464 1138.17 446.119 1146.78 453.428C1155.66 460.476 1160.1 469.352 1160.1 480.055C1160.1 487.103 1158.4 494.021 1155.01 500.808C1151.61 507.334 1146.91 512.816 1140.91 517.253C1135.17 521.43 1128.64 523.518 1121.33 523.518C1115.07 523.518 1109.71 521.561 1105.28 517.645C1101.1 513.468 1099.01 507.856 1099.01 500.808C1099.01 490.105 1102.54 480.968 1109.58 473.398C1116.89 465.567 1125.25 460.476 1134.64 458.127C1132.56 455.517 1129.95 453.559 1126.81 452.254C1123.94 450.948 1120.29 450.296 1115.85 450.296Z" fill="#A4123F"/>
<path fill-rule="evenodd" clip-rule="evenodd" d="M759.361 353.495C765.011 351.635 770.691 350.704 776.401 350.704C783.171 350.704 788.746 351.672 793.126 353.608C797.905 355.544 801.887 358.447 805.073 362.318C790.737 365.803 777.994 373.352 766.844 384.966C756.092 396.192 750.716 409.742 750.716 425.615C750.716 436.067 753.901 444.39 760.273 450.585C767.043 456.392 775.206 459.295 784.764 459.295C795.914 459.295 805.869 456.198 814.63 450.004C823.789 443.423 830.957 435.293 836.134 425.615C841.311 415.549 843.899 405.29 843.899 394.838C843.899 378.965 837.13 365.803 823.59 355.35C810.449 344.51 792.927 339.09 771.025 339.09C739.964 339.09 711.889 346.252 686.801 360.576C661.713 374.9 640.209 393.676 622.289 416.904C604.768 439.745 591.228 464.328 581.671 490.653C572.114 516.978 567.335 542.142 567.335 566.144C567.335 596.727 576.295 619.374 594.215 634.086C612.135 648.409 635.032 655.571 662.908 655.571C683.615 655.571 702.133 651.894 718.46 644.538C735.185 636.795 749.72 626.924 762.065 614.922C774.808 602.921 785.162 590.533 793.126 577.758L781.18 573.112C767.64 592.469 754.3 605.825 741.158 613.18C728.017 620.536 715.075 624.214 702.332 624.214C699.123 624.214 696.06 623.964 693.142 623.464C687.036 622.856 605.19 612.362 644.317 489.49C682.801 362.612 759.361 353.495 759.361 353.495Z" fill="#A4123F"/>
<path d="M922.642 626.5L880.745 673.88L849.419 481.621C848.114 474.573 846.809 469.744 845.504 467.133C844.199 464.523 842.11 463.217 839.239 463.217C836.628 463.217 834.018 465.045 831.407 468.699C828.797 472.093 825.273 479.924 820.835 492.193L813.787 511.38H806.347L816.136 482.796C821.618 466.872 828.536 456.169 836.889 450.687C845.243 445.205 854.379 442.464 864.299 442.464C875.002 442.464 883.616 445.466 890.142 451.47C896.668 457.213 901.106 468.308 903.456 484.754L922.642 626.5ZM829.058 704.813C841.327 698.809 853.988 690.586 867.04 680.145C880.092 669.964 893.405 656.129 906.98 638.639C921.598 620.627 934.389 601.179 945.353 580.295C956.317 559.151 964.409 538.92 969.63 519.603C959.971 514.121 951.488 507.073 944.178 498.458C936.869 489.583 933.345 479.794 933.606 469.091C933.606 460.737 935.955 454.211 940.654 449.513C945.353 444.814 951.749 442.464 959.841 442.464C968.977 442.464 975.504 445.597 979.419 451.862C983.596 458.127 985.684 466.872 985.684 478.097C985.684 490.366 983.596 503.81 979.419 518.428C975.243 533.047 969.5 548.187 962.19 563.85C954.881 579.251 946.658 594.261 937.522 608.88C928.385 623.498 918.727 636.811 908.546 648.819C900.454 659 891.317 668.528 881.136 677.404C871.217 686.279 860.644 694.241 849.419 701.289C838.456 708.337 826.97 713.95 814.962 718.127C809.219 720.215 803.998 721.651 799.299 722.434C794.6 723.478 790.554 724 787.161 724C778.807 724 772.281 722.042 767.582 718.127C762.622 714.472 760.143 709.12 760.143 702.072C760.143 695.285 762.753 689.542 767.974 684.843C772.934 680.145 779.329 677.795 787.161 677.795C795.514 677.795 803.084 680.145 809.871 684.843C816.92 689.803 823.315 696.46 829.058 704.813Z" fill="#A4123F"/>
<path d="M1426.96 248.92C1426.96 252.821 1426.72 256.884 1426.23 261.11H1331.89C1332.54 269.561 1335.22 276.062 1339.93 280.613C1344.81 285.001 1350.74 287.195 1357.73 287.195C1368.13 287.195 1375.36 282.807 1379.43 274.031H1423.79C1421.52 282.97 1417.38 291.015 1411.36 298.166C1405.51 305.317 1398.12 310.924 1389.18 314.987C1380.24 319.051 1370.24 321.082 1359.19 321.082C1345.86 321.082 1334 318.238 1323.6 312.55C1313.2 306.861 1305.07 298.735 1299.22 288.17C1293.37 277.606 1290.44 265.254 1290.44 251.114C1290.44 236.974 1293.29 224.622 1298.97 214.058C1304.83 203.494 1312.95 195.368 1323.35 189.679C1333.75 183.991 1345.7 181.146 1359.19 181.146C1372.36 181.146 1384.06 183.909 1394.3 189.435C1404.54 194.961 1412.5 202.844 1418.19 213.083C1424.04 223.322 1426.96 235.268 1426.96 248.92ZM1384.3 237.95C1384.3 230.798 1381.86 225.11 1376.99 220.884C1372.11 216.659 1366.02 214.546 1358.7 214.546C1351.71 214.546 1345.78 216.577 1340.91 220.64C1336.19 224.704 1333.27 230.473 1332.13 237.95H1384.3Z" fill="#A4123F"/>
<path d="M1223.99 181.634C1240.89 181.634 1254.3 186.753 1264.21 196.992C1274.29 207.232 1279.33 221.453 1279.33 239.656V319.132H1237.88V245.263C1237.88 236.487 1235.53 229.742 1230.81 225.028C1226.26 220.153 1219.92 217.715 1211.8 217.715C1203.67 217.715 1197.25 220.153 1192.54 225.028C1187.99 229.742 1185.71 236.487 1185.71 245.263V319.132H1144.27V245.263C1144.27 236.487 1141.91 229.742 1137.2 225.028C1132.65 220.153 1126.31 217.715 1118.18 217.715C1110.05 217.715 1103.63 220.153 1098.92 225.028C1094.37 229.742 1092.1 236.487 1092.1 245.263V319.132H1050.41V183.096H1092.1V200.162C1096.32 194.473 1101.85 190.004 1108.67 186.753C1115.5 183.34 1123.22 181.634 1131.83 181.634C1142.07 181.634 1151.17 183.828 1159.14 188.216C1167.26 192.604 1173.6 198.862 1178.15 206.988C1182.87 199.512 1189.29 193.417 1197.41 188.704C1205.54 183.99 1214.4 181.634 1223.99 181.634Z" fill="#A4123F"/>
<path d="M997.569 205.769C1002.44 198.293 1008.54 192.442 1015.85 188.216C1023.17 183.828 1031.29 181.634 1040.23 181.634V225.76H1028.77C1018.37 225.76 1010.57 228.035 1005.37 232.586C1000.17 236.974 997.569 244.775 997.569 255.99V319.132H955.881V183.096H997.569V205.769Z" fill="#A4123F"/>
<path d="M872.329 321.082C859.002 321.082 846.975 318.238 836.248 312.55C825.684 306.861 817.314 298.735 811.138 288.17C805.124 277.606 802.118 265.254 802.118 251.114C802.118 237.137 805.206 224.866 811.382 214.302C817.558 203.575 826.009 195.368 836.736 189.679C847.463 183.991 859.49 181.146 872.817 181.146C886.144 181.146 898.171 183.991 908.898 189.679C919.625 195.368 928.076 203.575 934.252 214.302C940.428 224.866 943.516 237.137 943.516 251.114C943.516 265.092 940.347 277.444 934.008 288.17C927.832 298.735 919.3 306.861 908.41 312.55C897.684 318.238 885.657 321.082 872.329 321.082ZM872.329 285.001C880.293 285.001 887.038 282.076 892.564 276.225C898.252 270.374 901.097 262.004 901.097 251.114C901.097 240.225 898.334 231.855 892.808 226.004C887.444 220.153 880.781 217.227 872.817 217.227C864.691 217.227 857.946 220.153 852.582 226.004C847.219 231.692 844.537 240.062 844.537 251.114C844.537 262.004 847.138 270.374 852.339 276.225C857.702 282.076 864.366 285.001 872.329 285.001Z" fill="#A4123F"/>
<path d="M800.569 217.715H778.141V319.132H736.452V217.715H721.337V183.097H736.452V179.196C736.452 162.456 741.247 149.779 750.836 141.165C760.425 132.388 774.484 128 793.012 128C796.1 128 798.375 128.081 799.838 128.244V163.593C791.874 163.106 786.267 164.244 783.016 167.007C779.766 169.769 778.141 174.727 778.141 181.878V183.097H800.569V217.715Z" fill="#A4123F"/>
<path d="M660.675 181.634C676.603 181.634 689.28 186.835 698.707 197.236C708.296 207.475 713.09 221.615 713.09 239.656V319.132H671.646V245.263C671.646 236.161 669.289 229.092 664.576 224.053C659.863 219.015 653.524 216.496 645.56 216.496C637.597 216.496 631.258 219.015 626.545 224.053C621.831 229.092 619.475 236.161 619.475 245.263V319.132H577.787V183.096H619.475V201.137C623.701 195.123 629.389 190.41 636.54 186.997C643.691 183.421 651.737 181.634 660.675 181.634Z" fill="#A4123F"/>
<path d="M413.786 250.871C413.786 236.893 416.387 224.622 421.587 214.058C426.951 203.494 434.183 195.368 443.285 189.679C452.386 183.991 462.544 181.146 473.759 181.146C483.348 181.146 491.718 183.097 498.869 186.997C506.183 190.898 511.79 196.018 515.691 202.356V183.097H557.379V319.132H515.691V299.872C511.627 306.211 505.939 311.331 498.625 315.231C491.474 319.132 483.104 321.082 473.515 321.082C462.463 321.082 452.386 318.238 443.285 312.55C434.183 306.699 426.951 298.491 421.587 287.927C416.387 277.2 413.786 264.848 413.786 250.871ZM515.691 251.114C515.691 240.713 512.765 232.505 506.914 226.491C501.226 220.478 494.237 217.471 485.948 217.471C477.659 217.471 470.589 220.478 464.738 226.491C459.05 232.342 456.206 240.469 456.206 250.871C456.206 261.272 459.05 269.561 464.738 275.737C470.589 281.751 477.659 284.757 485.948 284.757C494.237 284.757 501.226 281.751 506.914 275.737C512.765 269.724 515.691 261.516 515.691 251.114Z" fill="#A4123F"/>
<path d="M369.237 205.769C374.113 198.293 380.208 192.442 387.521 188.216C394.835 183.828 402.961 181.634 411.9 181.634V225.76H400.442C390.041 225.76 382.239 228.035 377.038 232.586C371.837 236.974 369.237 244.775 369.237 255.99V319.132H327.549V183.096H369.237V205.769Z" fill="#A4123F"/>
<path fill-rule="evenodd" clip-rule="evenodd" d="M316.378 181.39V147.99H184V181.39H229.345V309.902C237.419 309.892 244.825 309.214 251.561 307.867C258.536 306.317 265.027 303.895 271.033 300.602V181.39H316.378Z" fill="#A4123F"/>
</svg>
