<svg width="1622" height="835" viewBox="0 0 1622 835" fill="none" xmlns="http://www.w3.org/2000/svg">
<rect width="1622" height="835" fill="#A4123F"/>
<path d="M275.661 307.458L275.661 325.388L275.661 352.974H308.41V358.524H275.661V470.648C275.661 476.199 276.678 480.177 278.713 482.582C280.749 484.802 283.802 485.912 287.872 485.912C291.202 485.912 294.533 484.71 297.863 482.304C301.194 479.714 304.154 475.366 306.744 469.26L311.462 471.758C308.502 480.084 303.969 486.93 297.863 492.296C291.943 497.661 283.802 500.344 273.44 500.344C267.335 500.344 261.969 499.511 257.343 497.846C252.718 496.366 248.832 494.053 245.687 490.908C241.616 486.837 238.934 481.842 237.638 475.921C236.343 469.815 235.696 461.952 235.696 452.331V358.524H212.383V352.974H235.696V316.339C235.744 316.339 235.792 316.339 235.84 316.339C243.555 316.331 250.63 315.683 257.066 314.396C263.727 312.916 269.925 310.603 275.661 307.458Z" fill="#F3EEEA"/>
<path d="M376.31 349.088C389.817 349.088 401.658 351.586 411.834 356.582C422.011 361.577 429.966 369.626 435.702 380.727C441.438 391.828 444.306 406.538 444.306 424.855C444.306 443.172 441.438 457.881 435.702 468.983C429.966 479.899 422.011 487.855 411.834 492.851C401.658 497.846 389.817 500.344 376.31 500.344C363.173 500.344 351.424 497.846 341.063 492.851C330.887 487.855 322.838 479.899 316.918 468.983C311.182 457.881 308.314 443.172 308.314 424.855C308.314 406.538 311.182 391.828 316.918 380.727C322.838 369.626 330.887 361.577 341.063 356.582C351.424 351.586 363.173 349.088 376.31 349.088ZM376.31 354.639C368.909 354.639 362.711 360.189 357.715 371.291C352.72 382.207 350.222 400.062 350.222 424.855C350.222 449.648 352.72 467.503 357.715 478.419C362.711 489.335 368.909 494.793 376.31 494.793C383.896 494.793 390.094 489.335 394.905 478.419C399.9 467.503 402.398 449.648 402.398 424.855C402.398 400.062 399.9 382.207 394.905 371.291C390.094 360.189 383.896 354.639 376.31 354.639Z" fill="#F3EEEA"/>
<path fill-rule="evenodd" clip-rule="evenodd" d="M570.251 474.902C567.745 481.807 565.535 488.669 563.629 495.486C560.135 495.578 556.665 495.717 553.219 495.903C546.558 496.088 541.469 496.273 537.954 496.459V490.63C543.505 490.63 547.39 489.243 549.61 486.467C551.831 483.692 552.941 478.419 552.941 470.648V384.335C552.941 379.709 552.478 375.731 551.553 372.401C550.628 368.886 548.963 366.202 546.558 364.352C544.152 362.317 540.544 361.3 535.733 361.3C530.738 361.3 526.112 362.687 521.857 365.462C517.786 368.238 514.456 372.123 511.866 377.119C509.46 381.93 508.257 387.388 508.257 393.493V470.648C508.257 478.419 509.368 483.692 511.588 486.467C513.993 489.243 517.879 490.63 523.244 490.63V496.459C519.914 496.273 515.011 496.088 508.535 495.903C502.245 495.534 495.676 495.348 488.83 495.348C481.8 495.348 474.583 495.534 467.183 495.903C459.782 496.088 454.231 496.273 450.531 496.459V490.63C457.007 490.63 461.539 489.243 464.13 486.467C466.905 483.692 468.293 478.419 468.293 470.648V383.224C468.293 374.899 466.998 368.793 464.407 364.908C462.002 360.837 457.377 358.802 450.531 358.802V352.974C456.452 353.529 462.187 353.806 467.738 353.806C475.509 353.806 482.725 353.529 489.385 352.974C496.231 352.233 502.522 351.216 508.257 349.921V374.899C512.883 365.462 519.174 358.802 527.13 354.916C535.086 351.031 543.967 349.088 553.773 349.088C561.544 349.088 567.835 350.106 572.646 352.141C577.642 353.991 581.526 356.582 584.302 359.912C587.262 363.427 589.39 367.961 590.686 373.511C592.165 379.062 592.905 386.555 592.905 395.991V426.828C583.87 442.176 576.313 458.204 570.251 474.902Z" fill="#F3EEEA"/>
<path d="M1300.28 557.416C1310.99 553.239 1321.17 548.54 1330.83 543.32C1340.48 538.099 1348.71 532.356 1355.49 526.091C1365.67 516.954 1373.77 506.382 1379.77 494.374C1386.04 482.105 1389.17 468.922 1389.17 454.826C1389.17 449.605 1388.65 446.211 1387.6 444.645C1386.56 442.818 1384.99 441.904 1382.9 441.904C1375.86 441.904 1368.02 446.342 1359.41 455.217C1350.8 464.093 1342.57 475.709 1334.74 490.067C1327.17 504.424 1320.91 520.087 1315.95 537.054C1311.25 554.022 1308.9 570.468 1308.9 586.392C1308.9 601.01 1311.64 611.06 1317.12 616.542C1322.86 621.763 1330.17 624.374 1339.05 624.374C1346.1 624.374 1354.84 622.024 1365.28 617.325C1375.73 612.627 1386.04 604.273 1396.22 592.265L1402.48 595.398C1397 604.012 1389.82 612.366 1380.95 620.458C1372.07 628.55 1361.76 635.207 1350.01 640.428C1338.27 645.388 1325.47 647.867 1311.64 647.867C1294.15 647.867 1279.53 643.299 1267.78 634.163C1256.04 624.765 1250.16 610.93 1250.16 592.657C1250.16 578.822 1252.38 564.595 1256.82 549.976C1261.52 535.358 1268.04 521.261 1276.4 507.687C1284.75 493.852 1294.8 481.452 1306.55 470.488C1318.3 459.263 1331.35 450.519 1345.71 444.253C1360.06 437.727 1375.33 434.464 1391.52 434.464C1403 434.464 1412.66 437.075 1420.49 442.296C1428.33 447.256 1432.24 454.956 1432.24 465.398C1432.24 475.579 1429.37 485.107 1423.63 493.982C1418.14 502.858 1410.7 510.95 1401.31 518.259C1391.91 525.569 1381.34 532.095 1369.59 537.838C1358.1 543.581 1346.23 548.54 1333.96 552.717C1321.95 556.894 1310.59 560.157 1299.89 562.506L1300.28 557.416Z" fill="#F3EEEA"/>
<path d="M1202.86 609.102C1201.03 615.889 1200.77 620.849 1202.08 623.981C1203.64 627.114 1206.12 628.68 1209.52 628.68C1212.39 628.68 1215.91 626.853 1220.09 623.198C1224.27 619.283 1228.57 610.799 1233.01 597.746L1240.06 578.951H1247.5L1237.71 607.536C1234.05 618.238 1229.36 626.461 1223.61 632.204C1217.87 637.947 1211.74 641.993 1205.21 644.343C1198.68 646.692 1192.16 647.867 1185.63 647.867C1174.41 647.867 1165.92 645.256 1160.18 640.035C1154.44 634.554 1151.17 627.244 1150.39 618.108C1149.87 608.71 1151.3 597.877 1154.7 585.608L1216.17 381.211C1218.78 372.335 1218.52 365.809 1215.39 361.632C1212.26 357.456 1204.3 355.367 1191.5 355.367L1194.25 347.145C1213.04 346.883 1229.49 345.448 1243.58 342.837C1257.94 339.966 1271.78 336.05 1285.09 331.09L1202.86 609.102Z" fill="#F3EEEA"/>
<path d="M1121.85 442.296C1112.19 442.296 1102.66 446.472 1093.26 454.826C1083.87 462.918 1075.38 473.882 1067.81 487.717C1060.5 501.553 1054.63 517.085 1050.19 534.314C1045.75 551.542 1043.54 569.293 1043.54 587.566C1043.54 601.402 1046.28 611.452 1051.76 617.717C1057.24 623.721 1064.42 626.723 1073.3 626.723C1081.65 626.723 1090.13 624.243 1098.75 619.283C1107.36 614.323 1116.11 605.317 1124.98 592.265L1132.81 595.398C1127.59 604.012 1120.8 612.366 1112.45 620.458C1104.36 628.55 1094.83 635.207 1083.87 640.428C1073.16 645.388 1061.03 647.867 1047.45 647.867C1029.18 647.867 1014.17 643.038 1002.42 633.38C990.675 623.46 984.801 608.189 984.801 587.566C984.801 571.382 987.934 554.414 994.199 536.663C1000.46 518.912 1009.34 502.336 1020.83 486.934C1032.57 471.272 1046.67 458.611 1063.11 448.952C1079.56 439.294 1097.96 434.464 1118.33 434.464C1132.68 434.464 1144.17 438.119 1152.78 445.428C1161.66 452.476 1166.1 461.352 1166.1 472.055C1166.1 479.103 1164.4 486.02 1161.01 492.808C1157.61 499.334 1152.91 504.816 1146.91 509.253C1141.17 513.43 1134.64 515.518 1127.33 515.518C1121.07 515.518 1115.71 513.561 1111.28 509.645C1107.1 505.468 1105.01 499.856 1105.01 492.808C1105.01 482.105 1108.54 472.968 1115.58 465.398C1122.89 457.567 1131.25 452.476 1140.64 450.127C1138.56 447.517 1135.95 445.559 1132.81 444.253C1129.94 442.948 1126.29 442.296 1121.85 442.296Z" fill="#F3EEEA"/>
<path fill-rule="evenodd" clip-rule="evenodd" d="M765.361 345.495C771.011 343.635 776.691 342.704 782.401 342.704C789.171 342.704 794.746 343.672 799.126 345.608C803.905 347.543 807.887 350.447 811.073 354.318C796.737 357.803 783.994 365.352 772.844 376.966C762.092 388.192 756.716 401.742 756.716 417.615C756.716 428.067 759.901 436.39 766.273 442.585C773.043 448.392 781.206 451.295 790.764 451.295C801.914 451.295 811.869 448.198 820.63 442.004C829.789 435.423 836.957 427.293 842.134 417.615C847.311 407.549 849.899 397.29 849.899 386.837C849.899 370.965 843.13 357.802 829.59 347.35C816.449 336.51 798.927 331.09 777.025 331.09C745.964 331.09 717.889 338.252 692.801 352.576C667.713 366.9 646.209 385.676 628.289 408.904C610.768 431.745 597.228 456.328 587.671 482.653C578.114 508.978 573.335 534.141 573.335 558.144C573.335 588.727 582.295 611.374 600.215 626.085C618.135 640.409 641.032 647.571 668.908 647.571C689.615 647.571 708.133 643.894 724.46 636.538C741.185 628.795 755.72 618.923 768.065 606.922C780.808 594.921 791.162 582.533 799.126 569.758L787.18 565.112C773.64 584.469 760.3 597.825 747.158 605.18C734.017 612.536 721.075 616.214 708.332 616.214C705.123 616.214 702.06 615.964 699.142 615.464C693.036 614.856 611.19 604.362 650.317 481.489C688.801 354.612 765.361 345.495 765.361 345.495Z" fill="#F3EEEA"/>
<path d="M928.642 618.5L886.745 665.88L855.419 473.621C854.114 466.573 852.809 461.743 851.504 459.133C850.199 456.523 848.11 455.217 845.239 455.217C842.628 455.217 840.018 457.045 837.407 460.699C834.797 464.093 831.273 471.924 826.835 484.193L819.787 503.38H812.347L822.136 474.796C827.618 458.872 834.536 448.169 842.889 442.687C851.243 437.205 860.379 434.464 870.299 434.464C881.002 434.464 889.616 437.466 896.142 443.47C902.668 449.213 907.106 460.308 909.456 476.753L928.642 618.5ZM835.058 696.813C847.327 690.809 859.988 682.586 873.04 672.145C886.092 661.964 899.405 648.129 912.98 630.639C927.598 612.627 940.389 593.179 951.353 572.295C962.317 551.151 970.409 530.92 975.63 511.603C965.971 506.121 957.488 499.073 950.178 490.458C942.869 481.583 939.345 471.794 939.606 461.091C939.606 452.737 941.955 446.211 946.654 441.513C951.353 436.814 957.749 434.464 965.841 434.464C974.977 434.464 981.504 437.597 985.419 443.862C989.596 450.127 991.684 458.872 991.684 470.097C991.684 482.366 989.596 495.81 985.419 510.428C981.243 525.047 975.5 540.187 968.19 555.85C960.881 571.251 952.658 586.261 943.522 600.88C934.385 615.498 924.727 628.811 914.546 640.819C906.454 651 897.317 660.528 887.136 669.404C877.217 678.279 866.644 686.241 855.419 693.289C844.456 700.337 832.97 705.95 820.962 710.126C815.219 712.215 809.998 713.651 805.299 714.434C800.6 715.478 796.554 716 793.161 716C784.807 716 778.281 714.042 773.582 710.126C768.622 706.472 766.143 701.12 766.143 694.072C766.143 687.285 768.753 681.542 773.974 676.843C778.934 672.145 785.329 669.795 793.161 669.795C801.514 669.795 809.084 672.145 815.871 676.843C822.92 681.803 829.315 688.46 835.058 696.813Z" fill="#F3EEEA"/>
<path d="M1432.96 240.92C1432.96 244.821 1432.72 248.884 1432.23 253.11H1337.89C1338.54 261.561 1341.22 268.062 1345.93 272.613C1350.81 277.001 1356.74 279.195 1363.73 279.195C1374.13 279.195 1381.36 274.807 1385.43 266.031H1429.79C1427.52 274.97 1423.38 283.015 1417.36 290.166C1411.51 297.317 1404.12 302.924 1395.18 306.988C1386.24 311.051 1376.24 313.082 1365.19 313.082C1351.86 313.082 1340 310.238 1329.6 304.55C1319.2 298.861 1311.07 290.735 1305.22 280.171C1299.37 269.606 1296.44 257.254 1296.44 243.114C1296.44 228.975 1299.29 216.622 1304.97 206.058C1310.83 195.494 1318.95 187.368 1329.35 181.679C1339.75 175.991 1351.7 173.146 1365.19 173.146C1378.36 173.146 1390.06 175.909 1400.3 181.435C1410.54 186.961 1418.5 194.844 1424.19 205.083C1430.04 215.322 1432.96 227.268 1432.96 240.92ZM1390.3 229.95C1390.3 222.799 1387.86 217.11 1382.99 212.884C1378.11 208.659 1372.02 206.546 1364.7 206.546C1357.71 206.546 1351.78 208.577 1346.91 212.641C1342.19 216.704 1339.27 222.473 1338.13 229.95H1390.3Z" fill="#F3EEEA"/>
<path d="M1229.99 173.634C1246.89 173.634 1260.3 178.753 1270.21 188.992C1280.29 199.232 1285.33 213.453 1285.33 231.656V311.131H1243.88V237.263C1243.88 228.486 1241.53 221.742 1236.81 217.028C1232.26 212.152 1225.92 209.715 1217.8 209.715C1209.67 209.715 1203.25 212.152 1198.54 217.028C1193.99 221.742 1191.71 228.486 1191.71 237.263V311.131H1150.27V237.263C1150.27 228.486 1147.91 221.742 1143.2 217.028C1138.65 212.152 1132.31 209.715 1124.18 209.715C1116.05 209.715 1109.63 212.152 1104.92 217.028C1100.37 221.742 1098.1 228.486 1098.1 237.263V311.131H1056.41V175.096H1098.1V192.162C1102.32 186.473 1107.85 182.004 1114.67 178.753C1121.5 175.34 1129.22 173.634 1137.83 173.634C1148.07 173.634 1157.17 175.828 1165.14 180.216C1173.26 184.604 1179.6 190.861 1184.15 198.988C1188.87 191.512 1195.29 185.417 1203.41 180.703C1211.54 175.99 1220.4 173.634 1229.99 173.634Z" fill="#F3EEEA"/>
<path d="M1003.57 197.769C1008.44 190.293 1014.54 184.442 1021.85 180.216C1029.17 175.828 1037.29 173.634 1046.23 173.634V217.76H1034.77C1024.37 217.76 1016.57 220.035 1011.37 224.586C1006.17 228.974 1003.57 236.775 1003.57 247.99V311.131H961.881V175.096H1003.57V197.769Z" fill="#F3EEEA"/>
<path d="M878.329 313.082C865.002 313.082 852.975 310.238 842.248 304.55C831.684 298.861 823.314 290.735 817.138 280.171C811.124 269.606 808.118 257.254 808.118 243.114C808.118 229.137 811.206 216.866 817.382 206.302C823.558 195.575 832.009 187.368 842.736 181.679C853.463 175.991 865.49 173.146 878.817 173.146C892.144 173.146 904.171 175.991 914.898 181.679C925.625 187.368 934.076 195.575 940.252 206.302C946.428 216.866 949.516 229.137 949.516 243.114C949.516 257.092 946.347 269.444 940.008 280.171C933.832 290.735 925.3 298.861 914.41 304.55C903.684 310.238 891.657 313.082 878.329 313.082ZM878.329 277.001C886.293 277.001 893.038 274.076 898.564 268.225C904.252 262.374 907.097 254.004 907.097 243.114C907.097 232.225 904.334 223.855 898.808 218.004C893.444 212.153 886.781 209.228 878.817 209.228C870.691 209.228 863.946 212.153 858.582 218.004C853.219 223.692 850.537 232.063 850.537 243.114C850.537 254.004 853.138 262.374 858.339 268.225C863.702 274.076 870.366 277.001 878.329 277.001Z" fill="#F3EEEA"/>
<path d="M806.569 209.715H784.141V311.132H742.452V209.715H727.337V175.097H742.452V171.196C742.452 154.456 747.247 141.779 756.836 133.165C766.425 124.388 780.484 120 799.012 120C802.1 120 804.375 120.081 805.838 120.244V155.593C797.874 155.106 792.267 156.244 789.016 159.007C785.766 161.769 784.141 166.727 784.141 173.878V175.097H806.569V209.715Z" fill="#F3EEEA"/>
<path d="M666.675 173.634C682.603 173.634 695.28 178.834 704.707 189.236C714.296 199.475 719.09 213.615 719.09 231.656V311.131H677.646V237.263C677.646 228.161 675.289 221.091 670.576 216.053C665.863 211.015 659.524 208.496 651.56 208.496C643.597 208.496 637.258 211.015 632.545 216.053C627.831 221.091 625.475 228.161 625.475 237.263V311.131H583.787V175.096H625.475V193.137C629.701 187.123 635.389 182.41 642.54 178.997C649.691 175.421 657.737 173.634 666.675 173.634Z" fill="#F3EEEA"/>
<path d="M419.786 242.871C419.786 228.893 422.387 216.622 427.587 206.058C432.951 195.494 440.183 187.368 449.285 181.679C458.386 175.991 468.544 173.146 479.759 173.146C489.348 173.146 497.718 175.097 504.869 178.997C512.183 182.898 517.79 188.018 521.691 194.356V175.097H563.379V311.132H521.691V291.873C517.627 298.211 511.939 303.331 504.625 307.231C497.474 311.132 489.104 313.082 479.515 313.082C468.463 313.082 458.386 310.238 449.285 304.55C440.183 298.699 432.951 290.491 427.587 279.927C422.387 269.2 419.786 256.848 419.786 242.871ZM521.691 243.114C521.691 232.713 518.765 224.505 512.914 218.492C507.226 212.478 500.237 209.471 491.948 209.471C483.659 209.471 476.589 212.478 470.738 218.492C465.05 224.343 462.206 232.469 462.206 242.871C462.206 253.272 465.05 261.561 470.738 267.737C476.589 273.751 483.659 276.758 491.948 276.758C500.237 276.758 507.226 273.751 512.914 267.737C518.765 261.724 521.691 253.516 521.691 243.114Z" fill="#F3EEEA"/>
<path d="M375.237 197.769C380.113 190.293 386.208 184.442 393.521 180.216C400.835 175.828 408.961 173.634 417.9 173.634V217.76H406.442C396.041 217.76 388.239 220.035 383.038 224.586C377.837 228.974 375.237 236.775 375.237 247.99V311.131H333.549V175.096H375.237V197.769Z" fill="#F3EEEA"/>
<path fill-rule="evenodd" clip-rule="evenodd" d="M322.378 173.39V139.99H190V173.39H235.345V301.902C243.419 301.892 250.825 301.214 257.561 299.867C264.536 298.317 271.027 295.895 277.033 292.602V173.39H322.378Z" fill="#F3EEEA"/>
</svg>
