<svg width="1243" height="596" viewBox="0 0 1243 596" fill="none" xmlns="http://www.w3.org/2000/svg">
<path d="M85.6605 187.458L85.6607 205.388L85.6605 232.974H118.409V238.524H85.6605V350.648C85.6605 356.199 86.6781 360.177 88.7133 362.582C90.7486 364.802 93.8015 365.912 97.872 365.912C101.202 365.912 104.533 364.71 107.863 362.304C111.194 359.714 114.154 355.366 116.744 349.26L121.462 351.758C118.502 360.084 113.969 366.93 107.863 372.296C101.942 377.661 93.8015 380.344 83.4402 380.344C77.3344 380.344 71.9688 379.511 67.3432 377.846C62.7177 376.366 58.8322 374.053 55.6868 370.908C51.6163 366.837 48.9335 361.842 47.6383 355.921C46.3432 349.815 45.6956 341.952 45.6956 332.331V238.524H22.3827V232.974H45.6956V196.339C45.7438 196.339 45.792 196.339 45.8402 196.339C53.555 196.331 60.6301 195.683 67.0657 194.396C73.7265 192.916 79.9248 190.603 85.6605 187.458Z" fill="#F3EEEA"/>
<path d="M186.31 229.088C199.816 229.088 211.658 231.586 221.834 236.582C232.01 241.577 239.966 249.626 245.702 260.727C251.438 271.828 254.306 286.538 254.306 304.855C254.306 323.172 251.438 337.881 245.702 348.983C239.966 359.899 232.01 367.855 221.834 372.851C211.658 377.846 199.816 380.344 186.31 380.344C173.173 380.344 161.424 377.846 151.063 372.851C140.887 367.855 132.838 359.899 126.918 348.983C121.182 337.881 118.314 323.172 118.314 304.855C118.314 286.538 121.182 271.828 126.918 260.727C132.838 249.626 140.887 241.577 151.063 236.582C161.424 231.586 173.173 229.088 186.31 229.088ZM186.31 234.639C178.909 234.639 172.711 240.189 167.715 251.291C162.719 262.207 160.222 280.062 160.222 304.855C160.222 329.648 162.719 347.503 167.715 358.419C172.711 369.335 178.909 374.793 186.31 374.793C193.896 374.793 200.094 369.335 204.905 358.419C209.9 347.503 212.398 329.648 212.398 304.855C212.398 280.062 209.9 262.207 204.905 251.291C200.094 240.189 193.896 234.639 186.31 234.639Z" fill="#F3EEEA"/>
<path fill-rule="evenodd" clip-rule="evenodd" d="M380.251 354.902C377.744 361.807 375.535 368.669 373.628 375.486C370.135 375.578 366.665 375.717 363.218 375.903C356.558 376.088 351.469 376.273 347.954 376.459V370.63C353.505 370.63 357.39 369.243 359.61 366.467C361.83 363.692 362.941 358.419 362.941 350.648V264.335C362.941 259.709 362.478 255.731 361.553 252.401C360.628 248.886 358.963 246.202 356.558 244.352C354.152 242.317 350.544 241.3 345.733 241.3C340.738 241.3 336.112 242.687 331.857 245.462C327.786 248.238 324.456 252.123 321.866 257.119C319.46 261.93 318.257 267.388 318.257 273.493V350.648C318.257 358.419 319.368 363.692 321.588 366.467C323.993 369.243 327.879 370.63 333.244 370.63V376.459C329.914 376.273 325.011 376.088 318.535 375.903C312.245 375.534 305.676 375.348 298.83 375.348C291.8 375.348 284.583 375.534 277.183 375.903C269.782 376.088 264.231 376.273 260.531 376.459V370.63C267.006 370.63 271.539 369.243 274.13 366.467C276.905 363.692 278.293 358.419 278.293 350.648V263.224C278.293 254.899 276.997 248.793 274.407 244.908C272.002 240.837 267.377 238.802 260.531 238.802V232.974C266.452 233.529 272.187 233.806 277.738 233.806C285.508 233.806 292.725 233.529 299.385 232.974C306.231 232.233 312.522 231.216 318.257 229.921V254.899C322.883 245.462 329.174 238.802 337.13 234.916C345.086 231.031 353.967 229.088 363.773 229.088C371.544 229.088 377.835 230.106 382.646 232.141C387.641 233.991 391.526 236.582 394.302 239.912C397.262 243.427 399.39 247.961 400.685 253.511C402.165 259.062 402.905 266.555 402.905 275.991V306.828C393.87 322.176 386.313 338.204 380.251 354.902Z" fill="#F3EEEA"/>
<path d="M1110.28 437.416C1120.99 433.239 1131.17 428.54 1140.83 423.32C1150.48 418.099 1158.71 412.356 1165.49 406.091C1175.67 396.954 1183.77 386.382 1189.77 374.374C1196.04 362.105 1199.17 348.922 1199.17 334.826C1199.17 329.605 1198.65 326.211 1197.6 324.645C1196.56 322.818 1194.99 321.904 1192.9 321.904C1185.86 321.904 1178.02 326.342 1169.41 335.217C1160.8 344.093 1152.57 355.709 1144.74 370.067C1137.17 384.424 1130.91 400.087 1125.95 417.054C1121.25 434.022 1118.9 450.468 1118.9 466.392C1118.9 481.01 1121.64 491.06 1127.12 496.542C1132.86 501.763 1140.17 504.374 1149.05 504.374C1156.1 504.374 1164.84 502.024 1175.28 497.325C1185.73 492.627 1196.04 484.273 1206.22 472.265L1212.48 475.398C1207 484.012 1199.82 492.366 1190.95 500.458C1182.07 508.55 1171.76 515.207 1160.01 520.428C1148.27 525.388 1135.47 527.867 1121.64 527.867C1104.15 527.867 1089.53 523.299 1077.78 514.163C1066.04 504.765 1060.16 490.93 1060.16 472.657C1060.16 458.822 1062.38 444.595 1066.82 429.976C1071.52 415.358 1078.04 401.261 1086.4 387.687C1094.75 373.852 1104.8 361.452 1116.55 350.488C1128.3 339.263 1141.35 330.519 1155.71 324.253C1170.06 317.727 1185.33 314.464 1201.52 314.464C1213 314.464 1222.66 317.075 1230.49 322.296C1238.33 327.256 1242.24 334.956 1242.24 345.398C1242.24 355.579 1239.37 365.107 1233.63 373.982C1228.14 382.858 1220.7 390.95 1211.31 398.259C1201.91 405.569 1191.34 412.095 1179.59 417.838C1168.1 423.581 1156.23 428.54 1143.96 432.717C1131.95 436.894 1120.59 440.157 1109.89 442.506L1110.28 437.416Z" fill="#F3EEEA"/>
<path d="M1012.86 489.102C1011.03 495.889 1010.77 500.849 1012.08 503.981C1013.64 507.114 1016.12 508.68 1019.52 508.68C1022.39 508.68 1025.91 506.853 1030.09 503.198C1034.27 499.283 1038.57 490.799 1043.01 477.746L1050.06 458.951H1057.5L1047.71 487.536C1044.05 498.238 1039.36 506.461 1033.61 512.204C1027.87 517.947 1021.74 521.993 1015.21 524.343C1008.68 526.692 1002.16 527.867 995.631 527.867C984.406 527.867 975.922 525.256 970.179 520.035C964.436 514.554 961.173 507.244 960.39 498.108C959.868 488.71 961.304 477.877 964.697 465.608L1026.17 261.211C1028.78 252.335 1028.52 245.809 1025.39 241.632C1022.26 237.456 1014.3 235.367 1001.5 235.367L1004.25 227.145C1023.04 226.883 1039.49 225.448 1053.58 222.837C1067.94 219.966 1081.78 216.05 1095.09 211.09L1012.86 489.102Z" fill="#F3EEEA"/>
<path d="M931.849 322.296C922.19 322.296 912.662 326.472 903.265 334.826C893.867 342.918 885.383 353.882 877.813 367.717C870.504 381.553 864.63 397.085 860.192 414.314C855.755 431.542 853.536 449.293 853.536 467.566C853.536 481.402 856.277 491.452 861.759 497.717C867.24 503.721 874.419 506.723 883.295 506.723C891.648 506.723 900.132 504.243 908.746 499.283C917.361 494.323 926.106 485.317 934.981 472.265L942.813 475.398C937.592 484.012 930.805 492.366 922.451 500.458C914.359 508.55 904.831 515.207 893.867 520.428C883.164 525.388 871.026 527.867 857.451 527.867C839.178 527.867 824.168 523.038 812.421 513.38C800.674 503.46 794.801 488.189 794.801 467.566C794.801 451.382 797.933 434.414 804.198 416.663C810.463 398.912 819.339 382.336 830.825 366.934C842.572 351.272 856.668 338.611 873.114 328.952C889.56 319.294 907.963 314.464 928.325 314.464C942.682 314.464 954.168 318.119 962.782 325.428C971.658 332.476 976.096 341.352 976.096 352.055C976.096 359.103 974.399 366.02 971.005 372.808C967.612 379.334 962.913 384.816 956.909 389.253C951.166 393.43 944.64 395.518 937.331 395.518C931.066 395.518 925.714 393.561 921.277 389.645C917.1 385.468 915.011 379.856 915.011 372.808C915.011 362.105 918.536 352.968 925.584 345.398C932.893 337.567 941.246 332.476 950.644 330.127C948.556 327.517 945.945 325.559 942.813 324.253C939.941 322.948 936.287 322.296 931.849 322.296Z" fill="#F3EEEA"/>
<path fill-rule="evenodd" clip-rule="evenodd" d="M575.36 225.495C581.011 223.635 586.691 222.704 592.401 222.704C599.171 222.704 604.746 223.672 609.126 225.608C613.905 227.543 617.887 230.447 621.073 234.318C606.737 237.803 593.994 245.352 582.843 256.966C572.091 268.192 566.716 281.742 566.716 297.615C566.716 308.067 569.901 316.39 576.273 322.585C583.043 328.392 591.206 331.295 600.763 331.295C611.914 331.295 621.869 328.198 630.63 322.004C639.789 315.423 646.957 307.293 652.134 297.615C657.311 287.549 659.899 277.29 659.899 266.837C659.899 250.965 653.129 237.802 639.59 227.35C626.449 216.51 608.927 211.09 587.025 211.09C555.964 211.09 527.889 218.252 502.801 232.576C477.713 246.9 456.209 265.676 438.289 288.904C420.768 311.745 407.228 336.328 397.671 362.653C388.113 388.978 383.335 414.141 383.335 438.144C383.335 468.727 392.295 491.374 410.215 506.085C428.135 520.409 451.032 527.571 478.908 527.571C499.615 527.571 518.133 523.894 534.46 516.538C551.185 508.795 565.72 498.923 578.065 486.922C590.808 474.921 601.162 462.533 609.126 449.758L597.179 445.112C583.64 464.469 570.3 477.825 557.158 485.18C544.017 492.536 531.075 496.214 518.332 496.214C515.123 496.214 512.06 495.964 509.142 495.464C503.036 494.856 421.19 484.362 460.317 361.489C498.801 234.612 575.36 225.495 575.36 225.495Z" fill="#F3EEEA"/>
<path d="M738.642 498.5L696.744 545.88L665.419 353.621C664.114 346.573 662.809 341.743 661.503 339.133C660.198 336.523 658.11 335.217 655.238 335.217C652.628 335.217 650.018 337.045 647.407 340.699C644.797 344.093 641.273 351.924 636.835 364.193L629.787 383.38H622.347L632.136 354.796C637.618 338.872 644.536 328.169 652.889 322.687C661.242 317.205 670.379 314.464 680.299 314.464C691.001 314.464 699.616 317.466 706.142 323.47C712.668 329.213 717.106 340.308 719.455 356.753L738.642 498.5ZM645.058 576.813C657.327 570.809 669.987 562.586 683.04 552.145C696.092 541.964 709.405 528.129 722.979 510.639C737.598 492.627 750.389 473.179 761.353 452.295C772.316 431.151 780.409 410.92 785.63 391.603C775.971 386.121 767.487 379.073 760.178 370.458C752.869 361.583 749.345 351.794 749.606 341.091C749.606 332.737 751.955 326.211 756.654 321.513C761.353 316.814 767.748 314.464 775.841 314.464C784.977 314.464 791.503 317.597 795.419 323.862C799.596 330.127 801.684 338.872 801.684 350.097C801.684 362.366 799.596 375.81 795.419 390.428C791.242 405.047 785.499 420.187 778.19 435.85C770.881 451.251 762.658 466.261 753.521 480.88C744.385 495.498 734.726 508.811 724.545 520.819C716.453 531 707.317 540.528 697.136 549.404C687.216 558.279 676.644 566.241 665.419 573.289C654.455 580.337 642.969 585.95 630.961 590.126C625.218 592.215 619.998 593.651 615.299 594.434C610.6 595.478 606.554 596 603.16 596C594.807 596 588.281 594.042 583.582 590.126C578.622 586.472 576.142 581.12 576.142 574.072C576.142 567.285 578.753 561.542 583.973 556.843C588.933 552.145 595.329 549.795 603.16 549.795C611.514 549.795 619.084 552.145 625.871 556.843C632.919 561.803 639.315 568.46 645.058 576.813Z" fill="#F3EEEA"/>
<path d="M1242.96 120.92C1242.96 124.821 1242.72 128.884 1242.23 133.11H1147.89C1148.54 141.561 1151.22 148.062 1155.93 152.613C1160.81 157.001 1166.74 159.195 1173.73 159.195C1184.13 159.195 1191.36 154.807 1195.43 146.031H1239.8C1237.52 154.97 1233.38 163.015 1227.36 170.166C1221.51 177.317 1214.12 182.924 1205.18 186.988C1196.24 191.051 1186.24 193.082 1175.19 193.082C1161.86 193.082 1150 190.238 1139.6 184.55C1129.2 178.861 1121.07 170.735 1115.22 160.171C1109.37 149.606 1106.44 137.254 1106.44 123.114C1106.44 108.975 1109.29 96.6225 1114.97 86.0582C1120.83 75.494 1128.95 67.3676 1139.35 61.6792C1149.76 55.9907 1161.7 53.1465 1175.19 53.1465C1188.36 53.1465 1200.06 55.9094 1210.3 61.4354C1220.54 66.9613 1228.5 74.8439 1234.19 85.0831C1240.04 95.3223 1242.96 107.268 1242.96 120.92ZM1200.3 109.95C1200.3 102.799 1197.86 97.1101 1192.99 92.8844C1188.11 88.6587 1182.02 86.5458 1174.7 86.5458C1167.71 86.5458 1161.78 88.5774 1156.91 92.6406C1152.19 96.7038 1149.27 102.473 1148.13 109.95H1200.3Z" fill="#F3EEEA"/>
<path d="M1039.99 53.6335C1056.89 53.6335 1070.3 58.7531 1080.21 68.9923C1090.29 79.2316 1095.33 93.4527 1095.33 111.656V191.131H1053.88V117.263C1053.88 108.486 1051.53 101.742 1046.81 97.0283C1042.26 92.1525 1035.92 89.7146 1027.8 89.7146C1019.67 89.7146 1013.25 92.1525 1008.54 97.0283C1003.99 101.742 1001.71 108.486 1001.71 117.263V191.131H960.267V117.263C960.267 108.486 957.91 101.742 953.197 97.0283C948.646 92.1525 942.307 89.7146 934.181 89.7146C926.055 89.7146 919.635 92.1525 914.922 97.0283C910.371 101.742 908.095 108.486 908.095 117.263V191.131H866.407V55.0963H908.095V72.1616C912.321 66.4732 917.847 62.0037 924.673 58.7531C931.499 55.3401 939.219 53.6335 947.833 53.6335C958.072 53.6335 967.174 55.8277 975.138 60.2159C983.264 64.6041 989.603 70.8614 994.154 78.9878C998.867 71.5115 1005.29 65.4168 1013.41 60.7035C1021.54 55.9902 1030.4 53.6335 1039.99 53.6335Z" fill="#F3EEEA"/>
<path d="M813.569 77.7688C818.445 70.2926 824.54 64.4416 831.854 60.2159C839.167 55.8277 847.294 53.6335 856.233 53.6335V97.7596H844.774C834.373 97.7596 826.571 100.035 821.371 104.586C816.17 108.974 813.569 116.775 813.569 127.99V191.131H771.881V55.0963H813.569V77.7688Z" fill="#F3EEEA"/>
<path d="M688.33 193.082C675.002 193.082 662.975 190.238 652.249 184.55C641.684 178.861 633.314 170.735 627.138 160.171C621.125 149.606 618.118 137.254 618.118 123.114C618.118 109.137 621.206 96.8663 627.382 86.302C633.558 75.5752 642.009 67.3676 652.736 61.6792C663.463 55.9907 675.49 53.1465 688.817 53.1465C702.144 53.1465 714.171 55.9907 724.898 61.6792C735.625 67.3676 744.076 75.5752 750.252 86.302C756.428 96.8663 759.516 109.137 759.516 123.114C759.516 137.092 756.347 149.444 750.009 160.171C743.833 170.735 735.3 178.861 724.411 184.55C713.684 190.238 701.657 193.082 688.33 193.082ZM688.33 157.001C696.293 157.001 703.038 154.076 708.564 148.225C714.253 142.374 717.097 134.004 717.097 123.114C717.097 112.225 714.334 103.855 708.808 98.004C703.445 92.153 696.781 89.2275 688.817 89.2275C680.691 89.2275 673.946 92.153 668.583 98.004C663.219 103.692 660.537 112.063 660.537 123.114C660.537 134.004 663.138 142.374 668.339 148.225C673.702 154.076 680.366 157.001 688.33 157.001Z" fill="#F3EEEA"/>
<path d="M616.569 89.715H594.141V191.132H552.453V89.715H537.337V55.0967H552.453V51.196C552.453 34.4557 557.247 21.7786 566.836 13.1647C576.425 4.38823 590.484 0 609.012 0C612.1 0 614.375 0.0812583 615.838 0.243783V35.5934C607.874 35.1059 602.267 36.2435 599.017 39.0065C595.766 41.7695 594.141 46.7265 594.141 53.8777V55.0967H616.569V89.715Z" fill="#F3EEEA"/>
<path d="M476.675 53.6335C492.603 53.6335 505.28 58.8344 514.707 69.2361C524.296 79.4754 529.09 93.6152 529.09 111.656V191.131H487.646V117.263C487.646 108.161 485.289 101.091 480.576 96.0531C475.863 91.0148 469.524 88.4956 461.56 88.4956C453.597 88.4956 447.258 91.0148 442.545 96.0531C437.831 101.091 435.475 108.161 435.475 117.263V191.131H393.787V55.0963H435.475V73.1368C439.7 67.1233 445.389 62.41 452.54 58.9969C459.691 55.4213 467.736 53.6335 476.675 53.6335Z" fill="#F3EEEA"/>
<path d="M229.786 122.871C229.786 108.893 232.386 96.6225 237.587 86.0582C242.951 75.494 250.183 67.3676 259.285 61.6792C268.386 55.9907 278.544 53.1465 289.758 53.1465C299.348 53.1465 307.718 55.0968 314.869 58.9975C322.183 62.8981 327.79 68.0177 331.69 74.3563V55.0968H373.379V191.132H331.69V171.873C327.627 178.211 321.939 183.331 314.625 187.231C307.474 191.132 299.104 193.082 289.515 193.082C278.463 193.082 268.386 190.238 259.285 184.55C250.183 178.699 242.951 170.491 237.587 159.927C232.386 149.2 229.786 136.848 229.786 122.871ZM331.69 123.114C331.69 112.713 328.765 104.505 322.914 98.4916C317.226 92.4781 310.237 89.4713 301.948 89.4713C293.659 89.4713 286.589 92.4781 280.738 98.4916C275.05 104.343 272.205 112.469 272.205 122.871C272.205 133.272 275.05 141.561 280.738 147.737C286.589 153.751 293.659 156.758 301.948 156.758C310.237 156.758 317.226 153.751 322.914 147.737C328.765 141.724 331.69 133.516 331.69 123.114Z" fill="#F3EEEA"/>
<path d="M185.237 77.7688C190.113 70.2926 196.208 64.4416 203.521 60.2159C210.835 55.8277 218.961 53.6335 227.9 53.6335V97.7596H216.442C206.041 97.7596 198.239 100.035 193.038 104.586C187.837 108.974 185.237 116.775 185.237 127.99V191.131H143.549V55.0963H185.237V77.7688Z" fill="#F3EEEA"/>
<path fill-rule="evenodd" clip-rule="evenodd" d="M132.378 53.3896V19.9902H0V53.3896H45.3451V181.902C53.4195 181.892 60.8248 181.214 67.561 179.867C74.5358 178.317 81.0268 175.895 87.0333 172.602V53.3896H132.378Z" fill="#F3EEEA"/>
</svg>
