<svg width="1404" height="656" viewBox="0 0 1404 656" fill="none" xmlns="http://www.w3.org/2000/svg">
<path d="M89.9517 189.831L89.952 209.368L89.9517 239.427H125.637V245.476H89.9517V367.653C89.9517 373.702 91.0606 378.037 93.2783 380.657C95.4961 383.077 98.8227 384.287 103.258 384.287C106.887 384.287 110.516 382.976 114.145 380.355C117.774 377.532 121 372.795 123.823 366.141L128.964 368.863C125.738 377.936 120.799 385.395 114.145 391.242C107.694 397.089 98.8227 400.012 87.5324 400.012C80.8791 400.012 75.0323 399.105 69.992 397.291C64.9517 395.678 60.7178 393.158 57.2904 389.73C52.8549 385.295 49.9315 379.851 48.5202 373.399C47.1089 366.746 46.4033 358.178 46.4033 347.694V245.476H21V239.427H46.4033V199.508C46.4558 199.508 46.5084 199.508 46.5609 199.508C54.9674 199.499 62.6769 198.794 69.6896 197.391C76.9477 195.778 83.7017 193.258 89.9517 189.831Z" fill="#F3EEEA"/>
<path d="M199.626 235.194C214.344 235.194 227.247 237.915 238.336 243.359C249.425 248.802 258.094 257.573 264.344 269.669C270.594 281.766 273.719 297.794 273.719 317.754C273.719 337.714 270.594 353.742 264.344 365.839C258.094 377.734 249.425 386.403 238.336 391.847C227.247 397.291 214.344 400.012 199.626 400.012C185.312 400.012 172.509 397.291 161.219 391.847C150.13 386.403 141.36 377.734 134.908 365.839C128.658 353.742 125.533 337.714 125.533 317.754C125.533 297.794 128.658 281.766 134.908 269.669C141.36 257.573 150.13 248.802 161.219 243.359C172.509 237.915 185.312 235.194 199.626 235.194ZM199.626 241.242C191.562 241.242 184.808 247.29 179.364 259.387C173.92 271.282 171.199 290.738 171.199 317.754C171.199 344.77 173.92 364.226 179.364 376.121C184.808 388.016 191.562 393.964 199.626 393.964C207.892 393.964 214.646 388.016 219.888 376.121C225.332 364.226 228.054 344.77 228.054 317.754C228.054 290.738 225.332 271.282 219.888 259.387C214.646 247.29 207.892 241.242 199.626 241.242Z" fill="#F3EEEA"/>
<path fill-rule="evenodd" clip-rule="evenodd" d="M410.958 372.289C408.226 379.813 405.819 387.29 403.741 394.718C399.934 394.819 396.153 394.971 392.398 395.173C385.14 395.375 379.595 395.577 375.765 395.779V389.428C381.813 389.428 386.047 387.916 388.466 384.891C390.885 381.867 392.095 376.121 392.095 367.653V273.601C392.095 268.56 391.591 264.226 390.583 260.597C389.575 256.766 387.76 253.842 385.14 251.826C382.518 249.609 378.587 248.5 373.345 248.5C367.901 248.5 362.861 250.012 358.224 253.036C353.788 256.06 350.16 260.294 347.337 265.738C344.716 270.98 343.405 276.928 343.405 283.58V367.653C343.405 376.121 344.615 381.867 347.035 384.891C349.655 387.916 353.889 389.428 359.736 389.428V395.779C356.107 395.577 350.764 395.375 343.708 395.173C336.853 394.771 329.696 394.569 322.236 394.569C314.575 394.569 306.712 394.771 298.647 395.173C290.583 395.375 284.535 395.577 280.502 395.779V389.428C287.559 389.428 292.498 387.916 295.321 384.891C298.345 381.867 299.857 376.121 299.857 367.653V272.391C299.857 263.318 298.446 256.666 295.623 252.432C293.003 247.996 287.962 245.778 280.502 245.778V239.428C286.954 240.032 293.204 240.335 299.253 240.335C307.72 240.335 315.583 240.032 322.841 239.428C330.301 238.621 337.156 237.512 343.405 236.101V263.318C348.446 253.036 355.301 245.778 363.97 241.544C372.64 237.311 382.317 235.194 393.002 235.194C401.47 235.194 408.325 236.303 413.567 238.52C419.011 240.536 423.244 243.359 426.269 246.988C429.494 250.818 431.813 255.758 433.224 261.807C434.837 267.855 435.643 276.02 435.643 286.303V319.904C425.798 336.629 417.564 354.093 410.958 372.289Z" fill="#F3EEEA"/>
<path d="M1242.01 474.546C1254.26 469.767 1265.91 464.39 1276.96 458.417C1288.01 452.443 1297.42 445.872 1305.19 438.703C1316.83 428.249 1326.09 416.152 1332.96 402.413C1340.13 388.374 1343.72 373.291 1343.72 357.162C1343.72 351.188 1343.12 347.305 1341.92 345.513C1340.73 343.422 1338.94 342.377 1336.55 342.377C1328.48 342.377 1319.52 347.454 1309.67 357.61C1299.81 367.765 1290.4 381.057 1281.44 397.484C1272.78 413.912 1265.61 431.833 1259.93 451.248C1254.56 470.663 1251.87 489.48 1251.87 507.7C1251.87 524.426 1255.01 535.926 1261.28 542.198C1267.85 548.172 1276.21 551.159 1286.37 551.159C1294.43 551.159 1304.44 548.471 1316.39 543.094C1328.33 537.718 1340.13 528.16 1351.78 514.42L1358.95 518.005C1352.68 527.861 1344.46 537.419 1334.31 546.679C1324.15 555.938 1312.35 563.554 1298.91 569.528C1285.47 575.203 1270.84 578.041 1255.01 578.041C1234.99 578.041 1218.27 572.814 1204.83 562.36C1191.39 551.607 1184.67 535.776 1184.67 514.868C1184.67 499.038 1187.2 482.76 1192.28 466.033C1197.66 449.307 1205.13 433.177 1214.68 417.646C1224.24 401.815 1235.74 387.628 1249.18 375.083C1262.62 362.239 1277.56 352.233 1293.99 345.065C1310.41 337.598 1327.89 333.864 1346.4 333.864C1359.55 333.864 1370.6 336.851 1379.56 342.825C1388.52 348.5 1393 357.311 1393 369.258C1393 380.907 1389.71 391.809 1383.14 401.965C1376.87 412.12 1368.36 421.379 1357.61 429.743C1346.85 438.106 1334.76 445.573 1321.32 452.144C1308.17 458.715 1294.58 464.39 1280.54 469.169C1266.8 473.948 1253.81 477.682 1241.57 480.37L1242.01 474.546Z" fill="#F3EEEA"/>
<path d="M1130.54 533.684C1128.45 541.45 1128.15 547.125 1129.64 550.709C1131.44 554.294 1134.27 556.086 1138.16 556.086C1141.44 556.086 1145.48 553.995 1150.25 549.813C1155.03 545.333 1159.96 535.626 1165.04 520.691L1173.1 499.186H1181.62L1170.42 531.892C1166.23 544.138 1160.86 553.547 1154.29 560.118C1147.72 566.689 1140.7 571.319 1133.23 574.007C1125.76 576.695 1118.29 578.039 1110.83 578.039C1097.98 578.039 1088.28 575.052 1081.71 569.079C1075.13 562.806 1071.4 554.443 1070.5 543.989C1069.91 533.236 1071.55 520.841 1075.43 506.802L1145.77 272.93C1148.76 262.775 1148.46 255.308 1144.88 250.529C1141.29 245.75 1132.18 243.36 1117.55 243.36L1120.68 233.952C1142.19 233.653 1161.01 232.01 1177.14 229.023C1193.56 225.738 1209.39 221.258 1224.63 215.583L1130.54 533.684Z" fill="#F3EEEA"/>
<path d="M1037.85 342.825C1026.8 342.825 1015.89 347.604 1005.14 357.162C994.389 366.421 984.681 378.966 976.019 394.796C967.656 410.627 960.936 428.398 955.858 448.112C950.78 467.825 948.241 488.136 948.241 509.044C948.241 524.874 951.378 536.374 957.65 543.542C963.923 550.412 972.136 553.847 982.292 553.847C991.85 553.847 1001.56 551.01 1011.41 545.334C1021.27 539.659 1031.28 529.355 1041.43 514.42L1050.39 518.005C1044.42 527.861 1036.65 537.419 1027.09 546.679C1017.84 555.938 1006.93 563.554 994.389 569.528C982.142 575.203 968.253 578.041 952.722 578.041C931.814 578.041 914.639 572.515 901.198 561.464C887.757 550.113 881.037 532.64 881.037 509.044C881.037 490.525 884.621 471.111 891.79 450.8C898.958 430.489 909.113 411.523 922.256 393.9C935.697 375.979 951.826 361.493 970.643 350.441C989.46 339.39 1010.52 333.864 1033.82 333.864C1050.24 333.864 1063.39 338.046 1073.24 346.409C1083.4 354.473 1088.48 364.629 1088.48 376.875C1088.48 384.94 1086.53 392.855 1082.65 400.621C1078.77 408.088 1073.39 414.36 1066.52 419.438C1059.95 424.217 1052.48 426.606 1044.12 426.606C1036.95 426.606 1030.83 424.366 1025.75 419.886C1020.97 415.107 1018.58 408.685 1018.58 400.621C1018.58 388.374 1022.61 377.92 1030.68 369.258C1039.04 360.298 1048.6 354.473 1059.35 351.785C1056.96 348.798 1053.98 346.558 1050.39 345.065C1047.11 343.571 1042.93 342.825 1037.85 342.825Z" fill="#F3EEEA"/>
<path fill-rule="evenodd" clip-rule="evenodd" d="M629.952 232.065C636.417 229.936 642.917 228.872 649.45 228.872C657.196 228.872 663.575 229.979 668.587 232.194C674.055 234.409 678.611 237.731 682.257 242.16C665.853 246.147 651.273 254.785 638.515 268.073C626.212 280.919 620.061 296.423 620.061 314.584C620.061 326.544 623.706 336.068 630.996 343.155C638.742 349.799 648.083 353.121 659.019 353.121C671.777 353.121 683.168 349.578 693.192 342.49C703.672 334.96 711.874 325.658 717.797 314.584C723.72 303.067 726.682 291.329 726.682 279.369C726.682 261.208 718.936 246.147 703.444 234.187C688.408 221.784 668.359 215.583 643.299 215.583C607.758 215.583 575.636 223.778 546.93 240.167C518.224 256.556 493.619 278.04 473.115 304.617C453.067 330.752 437.575 358.88 426.639 389.001C415.704 419.122 410.236 447.915 410.236 475.378C410.236 510.372 420.488 536.285 440.992 553.117C461.496 569.507 487.696 577.701 519.591 577.701C543.285 577.701 564.472 573.493 583.154 565.077C602.291 556.218 618.922 544.923 633.047 531.191C647.628 517.459 659.474 503.284 668.587 488.667L654.918 483.351C639.426 505.499 624.162 520.781 609.126 529.198C594.089 537.614 579.281 541.822 564.7 541.822C561.029 541.822 557.524 541.536 554.185 540.964C547.199 540.268 453.55 528.261 498.319 387.67C542.353 242.496 629.952 232.065 629.952 232.065Z" fill="#F3EEEA"/>
<path d="M816.78 544.438L768.84 598.65L732.998 378.667C731.504 370.603 730.011 365.077 728.518 362.09C727.024 359.103 724.635 357.61 721.349 357.61C718.362 357.61 715.375 359.7 712.388 363.882C709.402 367.765 705.369 376.726 700.292 390.764L692.227 412.717H683.715L694.915 380.011C701.188 361.791 709.103 349.545 718.661 343.273C728.219 337 738.673 333.864 750.023 333.864C762.269 333.864 772.126 337.299 779.593 344.169C787.06 350.74 792.138 363.434 794.826 382.251L816.78 544.438ZM709.7 634.044C723.739 627.175 738.225 617.766 753.159 605.819C768.094 594.17 783.327 578.339 798.858 558.327C815.585 537.718 830.221 515.466 842.765 491.571C855.31 467.377 864.57 444.229 870.543 422.126C859.492 415.854 849.785 407.789 841.421 397.932C833.058 387.777 829.026 376.576 829.324 364.33C829.324 354.772 832.013 347.305 837.389 341.929C842.765 336.552 850.083 333.864 859.343 333.864C869.797 333.864 877.264 337.448 881.744 344.617C886.523 351.785 888.913 361.791 888.913 374.635C888.913 388.673 886.523 404.055 881.744 420.782C876.965 437.508 870.394 454.832 862.031 472.753C853.667 490.376 844.259 507.551 833.805 524.277C823.351 541.003 812.299 556.237 800.651 569.976C791.391 581.625 780.937 592.527 769.288 602.682C757.938 612.838 745.841 621.948 732.998 630.012C720.453 638.077 707.311 644.499 693.571 649.278C687 651.667 681.026 653.31 675.65 654.206C670.274 655.401 665.644 655.998 661.761 655.998C652.203 655.998 644.736 653.758 639.359 649.278C633.684 645.096 630.847 638.973 630.847 630.908C630.847 623.142 633.834 616.571 639.808 611.195C645.483 605.819 652.8 603.13 661.761 603.13C671.319 603.13 679.981 605.819 687.747 611.195C695.811 616.87 703.129 624.487 709.7 634.044Z" fill="#F3EEEA"/>
<path d="M1403.66 122.02C1403.66 125.957 1403.41 130.057 1402.92 134.321H1307.72C1308.37 142.849 1311.08 149.409 1315.83 154.002C1320.75 158.43 1326.74 160.644 1333.79 160.644C1344.29 160.644 1351.59 156.216 1355.69 147.359H1400.46C1398.17 156.38 1393.98 164.498 1387.92 171.714C1382.01 178.931 1374.55 184.589 1365.53 188.689C1356.51 192.789 1346.42 194.839 1335.27 194.839C1321.82 194.839 1309.85 191.969 1299.35 186.229C1288.86 180.489 1280.66 172.288 1274.75 161.628C1268.85 150.968 1265.89 138.503 1265.89 124.235C1265.89 109.966 1268.76 97.5015 1274.5 86.8411C1280.41 76.1807 1288.61 67.9804 1299.11 62.2402C1309.6 56.5 1321.66 53.6299 1335.27 53.6299C1348.55 53.6299 1360.36 56.418 1370.69 61.9942C1381.03 67.5704 1389.06 75.5247 1394.8 85.8571C1400.71 96.1895 1403.66 108.244 1403.66 122.02ZM1360.61 110.95C1360.61 103.734 1358.15 97.9935 1353.23 93.7294C1348.31 89.4652 1342.16 87.3331 1334.78 87.3331C1327.72 87.3331 1321.74 89.3832 1316.82 93.4834C1312.06 97.5835 1309.11 103.406 1307.96 110.95H1360.61Z" fill="#F3EEEA"/>
<path d="M1196.37 54.1221C1213.43 54.1221 1226.96 59.2883 1236.97 69.6206C1247.13 79.953 1252.22 94.3036 1252.22 112.672V192.871H1210.4V118.33C1210.4 109.474 1208.02 102.668 1203.26 97.9117C1198.67 92.9915 1192.27 90.5314 1184.07 90.5314C1175.87 90.5314 1169.39 92.9915 1164.64 97.9117C1160.05 102.668 1157.75 109.474 1157.75 118.33V192.871H1115.93V118.33C1115.93 109.474 1113.55 102.668 1108.79 97.9117C1104.2 92.9915 1097.81 90.5314 1089.61 90.5314C1081.41 90.5314 1074.93 92.9915 1070.17 97.9117C1065.58 102.668 1063.28 109.474 1063.28 118.33V192.871H1021.22V55.5981H1063.28V72.8188C1067.55 67.0785 1073.12 62.5684 1080.01 59.2883C1086.9 55.8441 1094.69 54.1221 1103.38 54.1221C1113.71 54.1221 1122.9 56.3361 1130.94 60.7643C1139.14 65.1925 1145.53 71.5067 1150.12 79.707C1154.88 72.1627 1161.36 66.0125 1169.56 61.2563C1177.76 56.5002 1186.7 54.1221 1196.37 54.1221Z" fill="#F3EEEA"/>
<path d="M965.436 78.477C970.357 70.9327 976.507 65.0285 983.887 60.7643C991.267 56.3361 999.468 54.1221 1008.49 54.1221V98.6497H996.926C986.429 98.6497 978.557 100.946 973.309 105.538C968.061 109.966 965.436 117.838 965.436 129.155V192.871H923.369V55.5981H965.436V78.477Z" fill="#F3EEEA"/>
<path d="M836.597 194.839C823.148 194.839 811.012 191.969 800.187 186.229C789.527 180.489 781.081 172.288 774.848 161.628C768.78 150.968 765.746 138.503 765.746 124.235C765.746 110.13 768.862 97.7475 775.094 87.0871C781.327 76.2627 789.855 67.9804 800.679 62.2402C811.504 56.5 823.64 53.6299 837.089 53.6299C850.537 53.6299 862.674 56.5 873.498 62.2402C884.323 67.9804 892.851 76.2627 899.083 87.0871C905.315 97.7475 908.431 110.13 908.431 124.235C908.431 138.339 905.233 150.804 898.837 161.628C892.605 172.288 883.995 180.489 873.006 186.229C862.182 191.969 850.045 194.839 836.597 194.839ZM836.597 158.43C844.633 158.43 851.439 155.478 857.016 149.573C862.756 143.669 865.626 135.223 865.626 124.235C865.626 113.246 862.838 104.8 857.262 98.8956C851.849 92.9914 845.125 90.0392 837.089 90.0392C828.888 90.0392 822.082 92.9914 816.67 98.8956C811.258 104.636 808.552 113.082 808.552 124.235C808.552 135.223 811.176 143.669 816.424 149.573C821.836 155.478 828.56 158.43 836.597 158.43Z" fill="#F3EEEA"/>
<path d="M761.724 90.5314H739.091V192.871H697.023V90.5314H681.771V55.5981H697.023V51.6619C697.023 34.7693 701.861 21.9768 711.538 13.2845C721.214 4.42817 735.401 0 754.097 0C757.213 0 759.509 0.0819982 760.985 0.246002V35.9173C752.949 35.4253 747.291 36.5734 744.011 39.3615C740.731 42.1496 739.091 47.1518 739.091 54.368V55.5981H761.724V90.5314Z" fill="#F3EEEA"/>
<path d="M618.886 194.839C606.914 194.839 596.254 192.789 586.905 188.689C577.557 184.589 570.177 179.013 564.764 171.96C559.352 164.744 556.318 156.708 555.662 147.851H597.238C597.73 152.608 599.944 156.462 603.88 159.414C607.816 162.366 612.654 163.842 618.394 163.842C623.643 163.842 627.661 162.858 630.449 160.89C633.401 158.758 634.877 156.052 634.877 152.772C634.877 148.835 632.827 145.965 628.727 144.161C624.627 142.193 617.984 140.061 608.8 137.765C598.96 135.469 590.759 133.091 584.199 130.631C577.639 128.007 571.981 123.989 567.225 118.576C562.468 113 560.09 105.538 560.09 96.1895C560.09 88.3172 562.222 81.1829 566.487 74.7867C570.915 68.2264 577.311 63.0602 585.675 59.2881C594.204 55.516 604.29 53.6299 615.934 53.6299C633.155 53.6299 646.686 57.8941 656.526 66.4224C666.53 74.9507 672.27 86.2671 673.747 100.372H634.877C634.221 95.6155 632.089 91.8433 628.481 89.0552C625.037 86.2671 620.444 84.8731 614.704 84.8731C609.784 84.8731 606.012 85.8571 603.388 87.8252C600.764 89.6292 599.452 92.1713 599.452 95.4514C599.452 99.3876 601.502 102.34 605.602 104.308C609.866 106.276 616.426 108.244 625.283 110.212C635.451 112.836 643.733 115.46 650.13 118.084C656.526 120.544 662.102 124.645 666.858 130.385C671.778 135.961 674.321 143.505 674.485 153.018C674.485 161.054 672.188 168.27 667.596 174.666C663.168 180.899 656.69 185.819 648.162 189.427C639.797 193.035 630.039 194.839 618.886 194.839Z" fill="#F3EEEA"/>
<path d="M488.298 54.1221C504.371 54.1221 517.163 59.3703 526.675 69.8667C536.352 80.199 541.19 94.4676 541.19 112.672V192.871H499.368V118.33C499.368 109.146 496.99 102.012 492.234 96.9277C487.478 91.8435 481.082 89.3014 473.045 89.3014C465.009 89.3014 458.613 91.8435 453.857 96.9277C449.1 102.012 446.722 109.146 446.722 118.33V192.871H404.655V55.5981H446.722V73.8028C450.987 67.7346 456.727 62.9784 463.943 59.5343C471.159 55.9261 479.278 54.1221 488.298 54.1221Z" fill="#F3EEEA"/>
<path d="M236.701 123.989C236.701 109.884 239.326 97.5015 244.574 86.8411C249.986 76.1807 257.284 67.9804 266.469 62.2402C275.653 56.5 285.903 53.6299 297.22 53.6299C306.896 53.6299 315.342 55.598 322.559 59.5341C329.939 63.4703 335.597 68.6364 339.533 75.0327V55.598H381.601V192.871H339.533V173.436C335.433 179.833 329.693 184.999 322.313 188.935C315.096 192.871 306.65 194.839 296.974 194.839C285.821 194.839 275.653 191.969 266.469 186.229C257.284 180.325 249.986 172.042 244.574 161.382C239.326 150.558 236.701 138.093 236.701 123.989ZM339.533 124.235C339.533 113.738 336.581 105.456 330.677 99.3876C324.937 93.3194 317.884 90.2853 309.52 90.2853C301.156 90.2853 294.022 93.3194 288.117 99.3876C282.377 105.292 279.507 113.492 279.507 123.989C279.507 134.485 282.377 142.849 288.117 149.081C294.022 155.15 301.156 158.184 309.52 158.184C317.884 158.184 324.937 155.15 330.677 149.081C336.581 143.013 339.533 134.731 339.533 124.235Z" fill="#F3EEEA"/>
<path d="M189.287 78.477C194.207 70.9327 200.357 65.0285 207.738 60.7643C215.118 56.3361 223.318 54.1221 232.339 54.1221V98.6497H220.776C210.28 98.6497 202.408 100.946 197.159 105.538C191.911 109.966 189.287 117.838 189.287 129.155V192.871H147.219V55.5981H189.287V78.477Z" fill="#F3EEEA"/>
<path fill-rule="evenodd" clip-rule="evenodd" d="M135 52.7012V18.8711H0V52.7012H46.2431V182.871C54.4774 182.862 62.0294 182.174 68.899 180.81C76.0119 179.24 82.6315 176.787 88.7569 173.452V52.7012H135Z" fill="#F3EEEA"/>
</svg>
